<svg width="500" height="447" viewBox="0 0 500 447" fill="none" xmlns="http://www.w3.org/2000/svg">
<path d="M485.524 323.001C477.346 304.401 461.642 288.88 442.777 281.24C423.128 273.283 400.566 276.18 379.87 273.514C361.895 271.199 348.925 263.175 338.192 248.908C327.909 235.238 318.688 220.098 301.873 213.775C288.587 208.779 273.482 210.163 260.277 215.37C235.945 224.964 217.568 245.363 202.09 265.685C187.959 284.24 176.432 304.557 150.294 305.219C124.139 305.883 99.239 290.963 72.9042 294.916C38.0987 300.141 9.11302 329.116 3.03875 363.61C-2.65381 395.938 11.6309 427.293 36.1712 445.715H457.981C488.903 412.911 505.13 367.595 485.524 323.001Z" fill="#ECF0FF"/>
<path d="M104.215 445.715H105.375C113.434 436.858 119.746 426.111 123.759 414.181C130.254 394.871 129.98 374.607 122.988 357.119C119.454 348.282 114.352 340.046 109.417 332.08C104.412 324.002 99.2377 315.649 95.7254 306.698C94.2733 302.997 93.2004 299.023 92.5551 294.969C92.2643 294.931 91.9732 294.9 91.6821 294.864C92.3305 299.063 93.4335 303.18 94.9359 307.008C98.4757 316.031 103.671 324.417 108.696 332.528C113.611 340.461 118.694 348.666 122.2 357.434C129.117 374.735 129.385 394.791 122.954 413.91C118.892 425.988 112.448 436.836 104.215 445.715Z" fill="white"/>
<path d="M455.942 408.929C464.634 410.781 473.009 412.442 481.108 413.486C481.248 413.219 481.382 412.95 481.519 412.682C473.352 411.643 464.899 409.97 456.12 408.099C442.752 405.251 428.284 402.168 413.934 402.168C405.049 402.168 396.21 403.35 387.706 406.501C384.484 407.695 381.38 409.209 378.424 411.013C370.747 407.741 363.029 404.169 355.382 400.247C360.931 396.068 366.537 391.975 372.204 388.018C414.268 358.645 453.088 341.993 490.594 337.267C490.518 336.992 490.44 336.717 490.362 336.443C452.757 341.208 413.851 357.902 371.718 387.322C365.932 391.363 360.207 395.545 354.545 399.816C345.946 395.373 337.451 390.491 329.228 385.104C314.315 375.332 296.575 361.383 281.082 342.85C341.119 336.115 402.243 327.629 452.158 294.268C454.053 293.001 456.153 291.507 458.328 289.813C458.087 289.642 457.845 289.474 457.602 289.305C455.517 290.92 453.507 292.346 451.686 293.562C401.784 326.915 340.547 335.335 280.433 342.07C269.486 328.828 259.704 313.274 252.907 295.268C242.318 267.22 242.877 239.695 254.441 219.751C254.943 218.885 255.473 218.032 256.02 217.188C255.536 217.409 255.058 217.639 254.58 217.869C254.282 218.352 253.99 218.836 253.706 219.325C242.015 239.491 241.434 267.28 252.113 295.568C258.874 313.476 268.568 328.969 279.426 342.182C275.947 342.571 272.466 342.955 268.996 343.338C256.478 344.719 243.533 346.149 230.964 347.766C226.376 348.357 221.71 349.046 217.068 349.909C207.115 328.905 196.184 308.413 182.052 290.84C181.85 291.042 181.644 291.237 181.44 291.436C195.451 308.876 206.315 329.214 216.206 350.071C195.957 353.933 176.295 361.193 165.797 378.09C155.992 393.87 156.001 415.683 165.823 442.923C166.163 443.864 166.513 444.793 166.867 445.716H167.776C167.387 444.707 167 443.687 166.621 442.634C156.891 415.651 156.857 394.086 166.518 378.537C176.891 361.841 196.446 354.679 216.582 350.863C220.095 358.295 223.489 365.788 226.862 373.235L227.229 374.046C238.943 399.905 251.059 424.862 266.924 445.716H267.982C251.974 424.823 239.79 399.717 228.002 373.696L227.635 372.886C224.291 365.502 220.925 358.072 217.444 350.703C221.997 349.861 226.572 349.187 231.073 348.608C243.635 346.991 256.575 345.562 269.089 344.181C272.744 343.778 276.407 343.374 280.073 342.964C295.713 361.787 313.679 375.929 328.763 385.813C336.896 391.142 345.296 395.978 353.795 400.383C339.366 411.297 325.331 422.779 311.628 433.991C306.883 437.873 302.083 441.795 297.245 445.716H298.59C303.154 442.014 307.685 438.312 312.165 434.647C325.965 423.358 340.1 411.793 354.631 400.815C362.235 404.727 369.91 408.294 377.546 411.561C367.099 418.205 358.585 428.493 353.437 440.987C352.792 442.551 352.229 444.131 351.708 445.716H352.601C353.093 444.24 353.62 442.768 354.221 441.31C359.383 428.782 367.969 418.504 378.496 411.966C399.843 421.034 420.823 427.767 438.851 433.101L439.529 433.301C447.126 435.547 454.896 437.849 461.769 441.547C461.961 441.328 462.155 441.109 462.346 440.889C455.361 437.1 447.476 434.766 439.77 432.487L439.091 432.287C421.247 427.007 400.508 420.357 379.39 411.423C382.141 409.785 385.021 408.402 388.002 407.297C410.008 399.142 434.412 404.342 455.942 408.929Z" fill="white"/>
<path d="M38.2977 353.985C42.0442 369.32 40.3728 385.881 33.7116 399.423C29.3487 408.293 23.0481 416.323 15.2876 423.219C15.442 423.459 15.5997 423.697 15.7565 423.936C23.6429 416.949 30.0439 408.802 34.473 399.798C41.2207 386.08 42.9151 369.309 39.1215 353.784C36.1579 341.654 30.2 331.38 21.9685 323.946C21.785 324.162 21.6028 324.378 21.4216 324.596C29.516 331.915 35.3778 342.034 38.2977 353.985Z" fill="white"/>
<path d="M230.274 159.724C237.663 167.275 240.975 179.995 236.901 191.723C232.956 203.079 224.308 212.486 213.918 218.533C205.558 223.398 194.654 226.082 186.432 220.987C180.288 217.18 177.102 209.71 176.925 202.484C176.748 195.258 179.178 188.217 182.181 181.642C186.415 172.375 192.113 163.388 200.601 157.753C212.301 149.985 223.171 152.466 230.274 159.724Z" fill="#ECF0FF"/>
<path d="M132.325 27.3344H71.1375V0H132.325V27.3344ZM72.4098 26.062H131.052V1.27233H72.4098V26.062Z" fill="#E9DDCA"/>
<path d="M92.5189 53.4743H31.3318V26.1399H92.5189V53.4743ZM32.6041 52.2019H91.2466V27.4122H32.6041V52.2019Z" fill="#E9DDCA"/>
<path d="M480.466 82.6009C476.505 69.4267 469.536 57.3314 459.561 46.2734C449.565 35.2153 435.932 26.0868 418.663 18.8671C401.393 11.647 379.451 8.03735 352.836 8.03735C331.605 8.03735 309.968 10.9003 287.924 16.6264C265.86 22.3733 246.722 30.5474 230.489 41.1698L251.618 99.1809L240.294 108.355L256.717 113.182C272.93 104.696 287.701 98.5345 301.028 94.6962C314.336 90.8788 328.476 88.97 343.47 88.97C358.444 88.97 369.781 92.58 377.48 99.7997C385.181 107.04 389.02 115.733 389.02 125.94C389.02 138.264 385.058 149.198 377.175 158.762C369.252 168.326 360.516 177.994 350.946 187.766C344.303 194.55 337.842 201.562 331.605 208.782C325.368 216.023 319.842 223.762 315.067 232.06C310.272 240.338 306.433 249.259 303.527 258.823C300.602 268.388 299.159 279.114 299.159 291.001C299.159 294.84 299.24 299.404 299.464 304.715C299.501 305.695 299.553 306.65 299.611 307.593H284.084L301.028 319.051H383.413C382.986 316.499 382.784 313.533 382.784 310.13C382.784 306.728 382.784 304.176 382.784 302.475C382.784 295.254 384.246 288.139 387.152 281.126C390.057 274.114 393.714 267.434 398.082 261.043C402.45 254.674 407.327 248.616 412.751 242.89C418.155 237.143 423.357 231.728 428.355 226.625C434.998 219.841 441.865 212.621 448.935 204.965C456.006 197.31 462.263 189.26 467.668 180.754C473.072 172.248 477.541 163.016 481.077 153.016C484.612 143.036 486.4 132.103 486.4 120.194C486.399 108.306 484.408 95.7751 480.466 82.6009Z" fill="#1A3FD9"/>
<path d="M326.029 84.9231C311.211 84.9231 297.236 86.7702 284.085 90.4647C270.913 94.1792 256.317 100.143 240.294 108.355L214.373 38.6626C230.415 28.3825 249.329 20.4717 271.134 14.9097C292.919 9.36813 314.303 6.59717 335.285 6.59717C361.587 6.59717 383.272 10.0908 400.339 17.0781C417.406 24.0654 430.878 32.8998 440.757 43.6016C450.615 54.3034 457.502 66.0092 461.417 78.7589C465.312 91.5087 467.28 103.636 467.28 115.141C467.28 126.666 465.513 137.247 462.02 146.905C458.526 156.583 454.109 165.518 448.768 173.75C443.427 181.982 437.243 189.772 430.256 197.181C423.269 204.59 416.482 211.578 409.916 218.143C404.977 223.083 399.837 228.323 394.496 233.885C389.135 239.427 384.316 245.289 379.999 251.454C375.682 257.638 372.068 264.103 369.197 270.889C366.326 277.676 364.88 284.563 364.88 291.55C364.88 293.196 364.88 295.666 364.88 298.959C364.88 302.252 365.081 305.123 365.503 307.593H284.085C283.242 303.477 282.74 298.858 282.539 293.719C282.318 288.578 282.238 284.161 282.238 280.447C282.238 268.942 283.663 258.561 286.554 249.305C289.425 240.049 293.22 231.415 297.959 223.404C302.677 215.373 308.138 207.883 314.303 200.876C320.467 193.889 326.851 187.102 333.417 180.537C342.874 171.08 351.508 161.723 359.339 152.467C367.129 143.211 371.044 132.63 371.044 120.703C371.044 110.824 367.249 102.412 359.64 95.4044C352.03 88.4167 340.826 84.9231 326.029 84.9231Z" fill="#7A8EE0"/>
<path d="M389.051 399.018C389.051 413.872 384.243 425.332 374.626 433.418C365.009 441.52 354.141 445.554 342.005 445.554C329.852 445.554 318.984 441.52 309.367 433.418C299.767 425.333 294.958 413.872 294.958 399.018C294.958 384.182 299.767 372.721 309.367 364.619C324.17 352.126 346.07 349.343 363.402 358.11C378.781 365.891 389.051 381.69 389.051 399.018Z" fill="#1A3FD9"/>
<path d="M372.935 399.019C372.935 413.872 368.127 425.333 358.51 433.419C348.893 441.52 338.025 445.555 325.889 445.555C313.736 445.555 302.868 441.52 293.251 433.419C283.651 425.333 278.843 413.872 278.843 399.019C278.843 384.182 283.651 372.721 293.251 364.619C302.868 356.534 313.736 352.483 325.889 352.483C338.025 352.483 348.893 356.534 358.51 364.619C368.127 372.721 372.935 384.182 372.935 399.019Z" fill="#7A8EE0"/>
<path d="M129.039 188.439C129.942 183.622 126.769 178.986 121.953 178.084C117.136 177.181 112.5 180.354 111.598 185.17C110.695 189.986 113.868 194.622 118.684 195.525C123.5 196.428 128.136 193.255 129.039 188.439Z" fill="#D3DFFF"/>
<path d="M133.283 205.117C133.791 202.408 131.991 199.798 129.263 199.287C126.535 198.776 123.911 200.557 123.404 203.266C122.896 205.975 124.696 208.585 127.424 209.097C130.152 209.608 132.775 207.826 133.283 205.117Z" fill="#D3DFFF"/>
<path d="M123.123 166.844C136.766 153.202 136.766 131.084 123.123 117.441C109.481 103.799 87.3629 103.799 73.7207 117.441C60.0785 131.084 60.0785 153.202 73.7207 166.844C87.3629 180.486 109.481 180.486 123.123 166.844Z" fill="#D3DFFF"/>
<path d="M85.0111 146.544C87.4418 146.544 89.4124 144.574 89.4124 142.143C89.4124 139.712 87.4418 137.742 85.0111 137.742C82.5804 137.742 80.6099 139.712 80.6099 142.143C80.6099 144.574 82.5804 146.544 85.0111 146.544Z" fill="white"/>
<path d="M98.4247 146.544C100.855 146.544 102.826 144.574 102.826 142.143C102.826 139.712 100.855 137.742 98.4247 137.742C95.9939 137.742 94.0234 139.712 94.0234 142.143C94.0234 144.574 95.9939 146.544 98.4247 146.544Z" fill="white"/>
<path d="M111.838 146.544C114.269 146.544 116.239 144.574 116.239 142.143C116.239 139.712 114.269 137.742 111.838 137.742C109.407 137.742 107.437 139.712 107.437 142.143C107.437 144.574 109.407 146.544 111.838 146.544Z" fill="white"/>
<path d="M73.3999 428.068L76.6638 440.651C77.5151 443.933 80.6878 446.15 84.1981 445.912C94.9002 445.184 117.136 442.563 129.899 433.156L126.271 415.021C108.723 414.029 92.3131 415.006 78.1038 419.789C74.546 420.987 72.4882 424.553 73.3999 428.068Z" fill="#6F6873"/>
<path d="M93.8518 438.084C93.6662 438.084 93.4959 437.962 93.4433 437.774L89.0607 422.082C88.9976 421.856 89.1296 421.623 89.3552 421.559C89.5822 421.497 89.8149 421.628 89.878 421.854L94.2606 437.546C94.3234 437.772 94.1917 438.005 93.9661 438.069C93.9278 438.079 93.8891 438.084 93.8518 438.084Z" fill="white"/>
<path d="M103.324 435.964C103.138 435.964 102.968 435.842 102.915 435.654L98.5325 419.962C98.4697 419.737 98.6014 419.503 98.827 419.44C99.0543 419.376 99.2867 419.509 99.3498 419.734L103.732 435.426C103.796 435.652 103.664 435.886 103.438 435.949C103.4 435.959 103.361 435.964 103.324 435.964Z" fill="white"/>
<path d="M114.324 360.048L73.54 372.153L103.828 413.652L147.31 417.11L207.286 391.749L184.495 357.455L114.324 360.048Z" fill="#7A8EE0"/>
<path d="M164.603 365.812C254.167 339.298 268.561 418.455 128.817 432.864C123.882 427.31 118.113 417.673 115.823 409.617L189.619 375.515L164.603 365.812Z" fill="#7A8EE0"/>
<path d="M168.408 422.543C164.219 421.201 160.205 418.551 160.205 418.551L145.811 423.066L149.11 438.725L164.063 441.763C168.618 433.431 168.884 426.59 168.408 422.543Z" fill="#F9B384"/>
<path d="M116.143 410.166L115.504 409.066C130.899 400.119 170.334 378.624 203.932 372.285L204.167 373.535C170.763 379.838 131.481 401.252 116.143 410.166Z" fill="#1A3FD9"/>
<path d="M114.324 360.049C30.9574 344.198 9.36618 424.315 149.11 438.725C154.046 433.17 157.914 426.607 160.205 418.551C138.739 404.188 114.738 390.537 88.4341 377.532L114.324 360.049Z" fill="#7A8EE0"/>
<path d="M159.863 419.088C155.898 416.564 151.765 413.896 147.391 411.071C125.43 396.892 100.538 380.821 79.3906 371.657L79.8965 370.489C101.141 379.695 126.078 395.796 148.08 410.002C152.453 412.826 156.584 415.493 160.546 418.015L159.863 419.088Z" fill="#1A3FD9"/>
<path d="M53.1585 399.772L52.0449 399.157C55.1742 393.492 60.1865 389.671 66.9424 387.8L67.282 389.026C60.7775 390.827 56.1578 394.343 53.1585 399.772Z" fill="#1A3FD9"/>
<path d="M227.156 394.949C224.157 389.52 219.537 386.005 213.033 384.203L213.372 382.977C220.129 384.848 225.141 388.669 228.27 394.334L227.156 394.949Z" fill="#1A3FD9"/>
<path d="M141.303 438.021L140.373 437.153C147.042 430.01 151.138 422.471 152.894 414.102L154.14 414.363C152.334 422.966 148.135 430.704 141.303 438.021Z" fill="#1A3FD9"/>
<path d="M209.985 417.879C199.304 411.28 178.598 422.682 173.4 423.259C171.884 423.427 170.131 423.095 168.407 422.543C168.883 426.59 168.617 433.431 164.062 441.763L166.602 442.279C166.602 442.279 184.161 448.715 202.788 444.969C219.98 441.511 218.381 423.066 209.985 417.879Z" fill="#6F6873"/>
<path d="M195.426 439.463C195.383 439.463 195.341 439.456 195.298 439.443C195.075 439.372 194.951 439.134 195.021 438.911C196.29 434.893 196.844 426.988 193.168 421.68C193.035 421.487 193.083 421.223 193.276 421.09C193.468 420.956 193.732 421.004 193.866 421.196C197.715 426.756 197.149 434.989 195.83 439.166C195.773 439.347 195.606 439.463 195.426 439.463Z" fill="white"/>
<path d="M187.05 441.054C187.007 441.054 186.964 441.047 186.922 441.034C186.698 440.964 186.574 440.725 186.645 440.502C187.914 436.484 188.468 428.579 184.792 423.271C184.659 423.078 184.707 422.814 184.899 422.681C185.091 422.547 185.356 422.595 185.489 422.788C189.338 428.347 188.773 436.58 187.454 440.757C187.397 440.938 187.23 441.054 187.05 441.054Z" fill="white"/>
<path d="M99.5749 256.747C99.5749 256.747 120.57 238.894 119.793 235.501C119.237 233.077 113.29 236.632 113.29 236.632C113.29 236.632 121.631 226.736 121.207 225.535C120.449 223.387 114.68 227.39 114.68 227.39C114.68 227.39 118.579 221.778 116.715 220.863C114.851 219.949 110.787 223.407 110.787 223.407C110.787 223.407 113.161 220.291 112.046 219.474C110.93 218.656 106.118 222.018 106.118 222.018C106.118 222.018 107.845 218.089 104.176 219.578C100.507 221.068 74.7825 244.675 74.7825 244.675L99.5749 256.747Z" fill="#F9B384"/>
<path d="M108.165 235.572C108.063 235.572 107.96 235.535 107.879 235.461C104.275 232.168 102.686 231.369 98.7099 230.146C98.4859 230.077 98.3604 229.84 98.4293 229.616C98.4981 229.392 98.7353 229.265 98.9596 229.335C103.079 230.602 104.724 231.429 108.451 234.835C108.625 234.993 108.636 235.261 108.479 235.434C108.394 235.525 108.28 235.572 108.165 235.572Z" fill="#E28B6D"/>
<path d="M101.839 245.256C101.819 245.256 101.8 245.254 101.78 245.252C101.548 245.219 101.386 245.005 101.419 244.773C101.831 241.821 102.761 239.976 104.26 239.133C105.541 238.412 107.209 238.486 109.217 239.353C109.432 239.446 109.531 239.695 109.438 239.91C109.345 240.126 109.095 240.225 108.88 240.132C107.129 239.375 105.715 239.288 104.676 239.872C103.44 240.567 102.627 242.255 102.259 244.89C102.229 245.102 102.047 245.256 101.839 245.256Z" fill="#E28B6D"/>
<path d="M100.849 227.407C100.736 227.407 100.624 227.363 100.54 227.274C100.38 227.103 100.388 226.835 100.558 226.675L105.826 221.709C105.997 221.548 106.265 221.556 106.426 221.727C106.587 221.897 106.579 222.166 106.408 222.326L101.14 227.292C101.058 227.369 100.954 227.407 100.849 227.407Z" fill="#E28B6D"/>
<path d="M105.726 229.104C105.621 229.104 105.515 229.065 105.433 228.985C105.264 228.823 105.258 228.555 105.42 228.386L110.481 223.113C110.643 222.943 110.911 222.938 111.081 223.101C111.25 223.263 111.255 223.531 111.093 223.7L106.032 228.973C105.949 229.06 105.838 229.104 105.726 229.104Z" fill="#E28B6D"/>
<path d="M110.709 232.072C110.606 232.072 110.502 232.035 110.42 231.959C110.249 231.799 110.24 231.53 110.399 231.359L114.37 227.1C114.53 226.929 114.798 226.919 114.969 227.079C115.141 227.239 115.15 227.507 114.99 227.678L111.02 231.937C110.936 232.027 110.823 232.072 110.709 232.072Z" fill="#E28B6D"/>
<path d="M178.886 376.162L102.122 379.131L93.6396 309.153C93.6396 309.153 119.338 284.778 129.225 275.802L145.917 274.946C197.703 298.485 189.223 327.884 178.886 376.162Z" fill="#3A6BEA"/>
<path d="M145.917 274.946C145.917 274.946 205.163 280.012 223.841 320.604C242.117 360.323 167.01 374.466 167.01 374.466L145.917 274.946Z" fill="#3A6BEA"/>
<path d="M78.1939 283.644L102.677 253.85L79.7821 239.975C70.2318 246.616 51.7637 261.657 36.1127 278.689C32.6581 282.448 29.9598 286.839 28.6006 291.675C27.4409 295.801 27.2302 299.876 27.882 303.867C29.5808 314.267 37.7624 322.294 48.6837 323.573C58.011 324.665 93.6393 321.876 122.479 313.394L130.961 280.656C126.602 278.183 94.2083 277.753 78.1939 283.644Z" fill="#3A6BEA"/>
<g opacity="0.8">
<path d="M195.36 291.054C195.487 291.025 195.615 290.996 195.743 290.966C195.475 290.808 195.207 290.654 194.938 290.498C190.596 291.497 186.116 292.519 181.701 293.052C179.047 293.371 170.18 293.957 167.588 288.049C166.299 285.11 167.275 281.841 168.733 279.547C168.52 279.485 168.309 279.426 168.097 279.365C166.604 281.796 165.646 285.205 167.006 288.304C169.773 294.615 179.012 294.017 181.777 293.683C186.32 293.136 190.916 292.078 195.36 291.054Z" fill="white"/>
<path d="M223.009 336.834C220.179 335.741 217.255 334.61 214.181 334.9C208.789 335.41 204.175 340.742 203.895 346.786C203.704 350.907 205.278 355.226 208.28 359.025C208.461 358.912 208.641 358.799 208.82 358.684C205.886 354.993 204.346 350.802 204.53 346.816C204.796 341.075 209.152 336.014 214.241 335.533C217.163 335.262 219.891 336.312 222.78 337.427C223.811 337.826 224.859 338.227 225.924 338.568C225.979 338.363 226.032 338.158 226.082 337.951C225.044 337.617 224.018 337.224 223.009 336.834Z" fill="white"/>
<path d="M73.4687 316.603C69.7698 313.544 64.0222 312.726 57.703 314.36C52.0712 315.817 47.239 318.702 43.9194 322.521C44.1376 322.591 44.3507 322.67 44.5719 322.735C47.8016 319.112 52.4535 316.374 57.8618 314.976C63.9808 313.392 69.5228 314.166 73.0636 317.093C74.7464 318.484 75.9363 320.291 76.8012 322.241C77.0197 322.216 77.2388 322.191 77.4587 322.165C76.5535 320.068 75.2917 318.11 73.4687 316.603Z" fill="white"/>
<path d="M40.0298 274.528C46.9608 272.806 53.7241 270.387 59.9622 266.793C62.3193 265.436 64.981 263.705 66.8528 261.163C68.8441 258.459 69.5057 255.239 68.6229 252.551C68.2765 251.497 67.6634 250.571 66.8969 249.829C66.7348 249.962 66.5709 250.096 66.4077 250.231C67.1233 250.911 67.6966 251.77 68.0183 252.75C68.837 255.242 68.21 258.247 66.3409 260.786C64.5389 263.233 61.945 264.918 59.645 266.242C53.7611 269.632 47.3967 271.976 40.8593 273.669C40.5821 273.954 40.306 274.241 40.0298 274.528Z" fill="white"/>
</g>
<path d="M151.339 259.387L151.328 260.473L151.156 277.346L151.135 279.174C151.103 282.034 149.931 284.626 148.038 286.508C146.156 288.379 143.564 289.551 140.693 289.573C134.908 289.605 130.176 284.959 130.122 279.163L129.918 258.311L151.339 259.387Z" fill="#F9B384"/>
<path d="M151.328 260.473L151.156 277.346C141.778 273.528 137.918 263.376 137.918 263.376L151.328 260.473Z" fill="#6F6873"/>
<path d="M155.038 231.029C158.399 235.062 168.212 257.914 158.264 265.71C147.071 274.484 130.035 260.065 130.035 260.065L127.75 233.449L142.537 229.551L155.038 231.029Z" fill="#F9B384"/>
<path d="M120.217 229.564C120.217 229.564 87.4192 246.67 114.162 295.978C117.596 302.311 125.204 305.076 131.713 301.986C138.694 298.671 141.337 290.142 137.547 283.407C133.172 275.636 128.95 265.629 130.752 258.183L120.217 229.564Z" fill="#6F6873"/>
<path d="M129.584 243.933C133.049 240.468 133.049 234.851 129.584 231.386C126.119 227.922 120.502 227.922 117.037 231.386C113.573 234.851 113.573 240.468 117.037 243.933C120.502 247.398 126.119 247.398 129.584 243.933Z" fill="#7A8EE0"/>
<path d="M134.228 248.321C133.27 242.786 132.686 238.99 138.28 236.137C138.28 236.137 157.995 239.722 161.759 232.284C165.523 224.845 159.788 213.106 147.779 221.261C117.041 215.257 112.919 244.023 122.239 253.612L131.437 252.201C133.289 251.917 134.548 250.166 134.228 248.321Z" fill="#6F6873"/>
<path d="M149.493 249.647C150.217 249.647 150.804 249.06 150.804 248.336C150.804 247.612 150.217 247.025 149.493 247.025C148.769 247.025 148.183 247.612 148.183 248.336C148.183 249.06 148.769 249.647 149.493 249.647Z" fill="#6F6873"/>
<path d="M158.365 245.278C159.089 245.278 159.676 244.691 159.676 243.967C159.676 243.243 159.089 242.656 158.365 242.656C157.641 242.656 157.055 243.243 157.055 243.967C157.055 244.691 157.641 245.278 158.365 245.278Z" fill="#6F6873"/>
<path d="M157.458 252.37C157.366 252.37 157.274 252.336 157.202 252.268C157.054 252.126 157.048 251.892 157.189 251.743C157.715 251.19 158.29 250.412 158.049 249.848C157.797 249.262 156.735 249.009 156.248 249.009C155.203 249.009 154.7 247.149 154.611 246.776C154.562 246.577 154.685 246.376 154.884 246.328C155.083 246.279 155.284 246.402 155.332 246.602C155.523 247.388 155.955 248.267 156.248 248.267C156.749 248.267 158.279 248.503 158.731 249.555C159.053 250.306 158.715 251.214 157.727 252.254C157.654 252.331 157.556 252.37 157.458 252.37Z" fill="#6F6873"/>
<path d="M157.525 257.344C157.454 257.344 157.382 257.323 157.318 257.28C154.85 255.615 152.359 257.011 152.333 257.025C152.156 257.127 151.929 257.067 151.827 256.889C151.724 256.711 151.786 256.484 151.963 256.382C152.081 256.314 154.886 254.743 157.733 256.665C157.903 256.78 157.948 257.01 157.833 257.18C157.761 257.287 157.644 257.344 157.525 257.344Z" fill="#6F6873"/>
<path d="M148.919 242.66C149.665 244.063 148.365 244.345 146.843 245.153C145.321 245.962 143.762 246.259 143.406 245.589C143.051 244.92 143.996 243.721 145.519 242.912C147.041 242.104 148.342 241.573 148.919 242.66Z" fill="#6F6873"/>
<path d="M154.471 240.126C154.799 241.379 155.733 240.83 157.092 240.475C158.451 240.119 159.548 239.436 159.392 238.839C159.236 238.242 158.007 238.046 156.648 238.401C155.29 238.756 154.217 239.157 154.471 240.126Z" fill="#6F6873"/>
<path opacity="0.4" d="M146.078 257.292C147.647 255.845 147.746 253.399 146.299 251.83C144.851 250.261 142.406 250.162 140.837 251.61C139.268 253.057 139.169 255.502 140.616 257.071C142.064 258.64 144.509 258.739 146.078 257.292Z" fill="#EB5D60"/>
<path d="M133.477 258.079C135.243 255.79 134.566 252.308 131.966 250.301C129.365 248.295 125.825 248.523 124.059 250.812C122.293 253.1 122.97 256.582 125.571 258.589C128.171 260.596 131.711 260.367 133.477 258.079Z" fill="#F9B384"/>
<path d="M131.068 256.406C130.863 256.406 130.697 256.24 130.697 256.035C130.697 254.94 130.163 253.927 129.268 253.326C128.504 252.811 127.592 252.691 126.83 253.001C126.64 253.077 126.423 252.988 126.346 252.798C126.268 252.608 126.359 252.391 126.549 252.314C127.54 251.91 128.712 252.057 129.683 252.71C130.783 253.449 131.439 254.692 131.439 256.035C131.439 256.24 131.273 256.406 131.068 256.406Z" fill="#6F6873"/>
<path d="M77.8771 283.343L64.4858 297.829L65.1087 298.405L78.5 283.919L77.8771 283.343Z" fill="#6F6873"/>
<path d="M172.223 345.61L171.976 344.798C181.725 341.827 191.186 338.273 199.76 327.551L200.422 328.08C191.697 338.992 182.105 342.599 172.223 345.61Z" fill="#6F6873"/>
<path d="M178.151 312.762H95.2229C92.2405 312.762 89.8228 315.378 89.8228 318.604V377.812C89.8228 381.038 92.2405 383.654 95.2229 383.654H178.151C181.134 383.654 183.551 381.038 183.551 377.812V318.604C183.551 315.378 181.133 312.762 178.151 312.762Z" fill="#D3DFFF"/>
<path d="M141.065 344.466C141.38 344.466 141.635 344.742 141.635 345.083V351.334C141.635 351.674 141.38 351.951 141.065 351.951H132.309C131.994 351.951 131.739 351.674 131.739 351.334V345.083C131.739 344.742 131.994 344.466 132.309 344.466H141.065ZM141.065 342.77H132.309C131.06 342.77 130.043 343.807 130.043 345.083V351.334C130.043 352.61 131.06 353.647 132.309 353.647H141.065C142.314 353.647 143.331 352.61 143.331 351.334V345.083C143.331 343.807 142.314 342.77 141.065 342.77Z" fill="#1F3C88"/>
<path d="M500 444.868H0V446.564H500V444.868Z" fill="#6F6873"/>
</svg>
