<svg width="101" height="100" viewBox="0 0 101 100" fill="none" xmlns="http://www.w3.org/2000/svg">
<g clip-path="url(#clip0_72_119)">
<path opacity="0.965" fill-rule="evenodd" clip-rule="evenodd" d="M100.052 4.78516C100.052 34.8633 100.052 64.9414 100.052 95.0195C99.7015 95.2721 99.3759 95.565 99.0757 95.8984C78.7632 96.0287 58.4507 96.0287 38.1382 95.8984C36.8952 95.0508 36.6673 93.9766 37.4546 92.6758C37.631 92.4412 37.8587 92.2783 38.1382 92.1875C41.4476 91.9059 44.7679 91.8082 48.0991 91.8945C48.0665 88.5084 48.0991 85.1231 48.1968 81.7383C48.7821 79.1023 50.247 77.1166 52.5913 75.7813C55.3108 74.7662 58.0452 73.7897 60.7944 72.8516C60.0925 71.9854 59.5065 71.0412 59.0366 70.0195C57.0216 69.857 55.0032 69.7594 52.9819 69.7266C52.2071 69.6039 51.6536 69.1807 51.3218 68.457C51.1915 65.5924 51.1915 62.7279 51.3218 59.8633C52.672 51.808 57.1968 46.4369 64.896 43.75C73.2202 41.7287 80.1538 43.9748 85.6968 50.4883C87.6854 53.1648 88.9226 56.1596 89.4077 59.4727C89.538 62.5326 89.538 65.5924 89.4077 68.6524C89.0071 69.2486 88.4536 69.6066 87.7476 69.7266C85.7263 69.7594 83.7079 69.857 81.6929 70.0195C81.2782 71.0783 80.6923 72.0223 79.9351 72.8516C82.5392 73.7631 85.1435 74.6744 87.7476 75.5859C90.7993 77.1633 92.4595 79.6697 92.728 83.1055C92.8257 86.0344 92.8583 88.9641 92.8257 91.8945C93.9325 91.8945 95.0392 91.8945 96.146 91.8945C96.146 68.5873 96.146 45.2799 96.146 21.9727C65.4169 21.9727 34.6876 21.9727 3.9585 21.9727C3.9585 45.2799 3.9585 68.5873 3.9585 91.8945C9.95623 91.8045 15.9458 91.9022 21.9272 92.1875C22.8599 92.9014 23.1528 93.8453 22.8062 95.0195C22.5132 95.3125 22.2202 95.6055 21.9272 95.8984C14.9611 96.0287 7.99496 96.0287 1.02881 95.8984C0.72852 95.565 0.402998 95.2721 0.0522461 95.0195C0.0522461 64.9414 0.0522461 34.8633 0.0522461 4.78516C0.402998 4.53268 0.72852 4.23971 1.02881 3.90625C33.711 3.77604 66.3935 3.77604 99.0757 3.90625C99.3759 4.23971 99.7015 4.53268 100.052 4.78516ZM3.9585 7.91016C34.6876 7.91016 65.4169 7.91016 96.146 7.91016C96.146 11.2305 96.146 14.5508 96.146 17.8711C65.4169 17.8711 34.6876 17.8711 3.9585 17.8711C3.9585 14.5508 3.9585 11.2305 3.9585 7.91016ZM17.4351 30.957C25.964 30.9244 34.4927 30.957 43.021 31.0547C44.2905 31.543 45.1694 32.4219 45.6577 33.6914C45.788 39.8111 45.788 45.9311 45.6577 52.0508C44.9995 53.8156 43.73 54.7596 41.8491 54.8828C34.1017 55.0131 26.3544 55.0131 18.6069 54.8828C16.2306 54.5899 14.896 53.2553 14.603 50.8789C14.4728 45.5404 14.4728 40.2018 14.603 34.8633C14.7658 32.9777 15.7098 31.6758 17.4351 30.957ZM26.6147 38.3789C28.955 39.8711 31.2987 41.3686 33.646 42.8711C31.3183 44.3441 29.0069 45.8416 26.7124 47.3633C26.6147 44.3691 26.5821 41.3744 26.6147 38.3789ZM70.1694 46.9727C77.6237 47.4311 82.5718 51.1744 85.0132 58.2031C84.0366 58.3334 83.0601 58.3334 82.0835 58.2031C79.0005 51.551 73.8573 49.0119 66.6538 50.5859C62.7813 51.8869 60.1772 54.4586 58.8413 58.3008C57.8647 58.3008 56.8882 58.3008 55.9116 58.3008C57.2823 53.3834 60.3423 49.9654 65.0913 48.0469C66.7667 47.4713 68.4595 47.1131 70.1694 46.9727ZM68.8022 54.1992C73.8122 53.8416 77.0349 56.0551 78.4702 60.8399C78.5679 62.7918 78.6003 64.7449 78.5679 66.6992C76.4845 66.6992 74.4013 66.6992 72.3179 66.6992C71.9046 64.7357 70.798 64.2475 68.9976 65.2344C68.763 65.4107 68.6001 65.6385 68.5093 65.918C68.3288 67.3063 68.3938 68.6734 68.7046 70.0195C68.9417 70.3221 69.2347 70.5498 69.5835 70.7031C71.797 70.7682 74.0106 70.8334 76.2241 70.8984C71.7032 74.4211 67.504 74.0629 63.6265 69.8242C63.1823 69.0012 62.7917 68.1549 62.4546 67.2852C62.1536 65.2117 62.0884 63.1283 62.2593 61.0352C63.0888 57.4391 65.2698 55.1606 68.8022 54.1992ZM55.3257 62.4024C56.2372 62.4024 57.1485 62.4024 58.0601 62.4024C58.0601 63.5092 58.0601 64.6158 58.0601 65.7227C57.1485 65.7227 56.2372 65.7227 55.3257 65.7227C55.3257 64.6158 55.3257 63.5092 55.3257 62.4024ZM82.6694 62.4024C83.646 62.4024 84.6226 62.4024 85.5991 62.4024C85.5991 63.5092 85.5991 64.6158 85.5991 65.7227C84.6226 65.7227 83.646 65.7227 82.6694 65.7227C82.6694 64.6158 82.6694 63.5092 82.6694 62.4024ZM64.1147 76.0742C65.3505 76.41 66.5876 76.768 67.8257 77.1484C70.7331 77.6586 73.5325 77.3004 76.2241 76.0742C79.7249 77.1436 83.1755 78.3479 86.5757 79.6875C87.736 80.5436 88.4196 81.6828 88.6265 83.1055C88.7241 86.0344 88.7567 88.9641 88.7241 91.8945C76.4845 91.8945 64.245 91.8945 52.0054 91.8945C51.9728 89.1594 52.0054 86.425 52.103 83.6914C52.2368 81.5039 53.311 79.9738 55.3257 79.1016C58.2964 78.1441 61.2261 77.135 64.1147 76.0742Z" fill="#23252F"/>
<path opacity="0.898" fill-rule="evenodd" clip-rule="evenodd" d="M11.7712 10.8397C13.9275 10.6843 14.8064 11.6608 14.408 13.7694C13.6941 14.702 12.7501 14.9949 11.5759 14.6483C10.6434 13.9345 10.3504 12.9905 10.697 11.8163C11.0348 11.4448 11.3929 11.1193 11.7712 10.8397Z" fill="#23252F"/>
<path opacity="0.898" fill-rule="evenodd" clip-rule="evenodd" d="M19.5837 10.8397C21.74 10.6843 22.6189 11.6608 22.2205 13.7694C21.5066 14.702 20.5626 14.9949 19.3884 14.6483C18.4559 13.9345 18.1629 12.9905 18.5095 11.8163C18.8473 11.4448 19.2054 11.1193 19.5837 10.8397Z" fill="#23252F"/>
<path opacity="0.898" fill-rule="evenodd" clip-rule="evenodd" d="M27.3958 10.8397C29.5521 10.6843 30.431 11.6608 30.0325 13.7694C29.3187 14.702 28.3747 14.9949 27.2005 14.6483C26.2679 13.9345 25.9749 12.9905 26.3216 11.8163C26.6595 11.4448 27.0175 11.1193 27.3958 10.8397Z" fill="#23252F"/>
<path opacity="0.949" fill-rule="evenodd" clip-rule="evenodd" d="M42.6305 10.8398C57.9301 10.8073 73.2296 10.8398 88.529 10.9375C89.5872 11.8467 89.7825 12.9209 89.1149 14.1602C88.7014 14.6154 88.1805 14.8432 87.5524 14.8438C72.8389 14.974 58.1253 14.974 43.4118 14.8438C41.7758 14.5739 41.1573 13.6298 41.5563 12.0117C41.8219 11.519 42.18 11.1284 42.6305 10.8398Z" fill="#23252F"/>
<path opacity="0.955" fill-rule="evenodd" clip-rule="evenodd" d="M16.8491 26.8555C25.7687 26.8229 34.688 26.8555 43.6069 26.9532C46.8946 27.767 48.9454 29.8178 49.7593 33.1055C49.8896 39.6158 49.8896 46.1264 49.7593 52.6367C48.9669 55.8381 46.9812 57.8889 43.8023 58.7891C39.2823 59.0073 34.7577 59.1049 30.228 59.0821C25.6983 59.1049 21.1737 59.0073 16.6538 58.7891C13.5614 57.9102 11.5757 55.9244 10.6968 52.8321C10.5666 46.2565 10.5666 39.6811 10.6968 33.1055C11.5461 29.8149 13.5969 27.7317 16.8491 26.8555ZM17.4351 30.9571C15.7098 31.6758 14.7658 32.9778 14.603 34.8633C14.4728 40.2018 14.4728 45.5405 14.603 50.8789C14.896 53.2553 16.2306 54.5899 18.6069 54.8828C26.3544 55.0131 34.1017 55.0131 41.8491 54.8828C43.73 54.7596 44.9995 53.8156 45.6577 52.0508C45.788 45.9311 45.788 39.8112 45.6577 33.6914C45.1694 32.4219 44.2905 31.543 43.021 31.0547C34.4927 30.9571 25.964 30.9244 17.4351 30.9571ZM26.6147 38.3789C26.5821 41.3744 26.6147 44.3692 26.7124 47.3633C29.0069 45.8416 31.3183 44.3442 33.646 42.8711C31.2987 41.3686 28.955 39.8711 26.6147 38.3789Z" fill="#23252F"/>
<path opacity="0.943" fill-rule="evenodd" clip-rule="evenodd" d="M25.8335 34.082C27.0292 34.039 28.1359 34.332 29.1539 34.9609C31.5294 36.572 33.9382 38.1345 36.3804 39.6484C38.5105 41.9197 38.4453 44.1332 36.1851 46.289C33.4507 47.9818 30.7164 49.6744 27.982 51.3672C25.2683 52.1152 23.4779 51.1713 22.6109 48.5351C22.4806 44.7592 22.4806 40.983 22.6109 37.207C23.046 35.4808 24.1203 34.439 25.8335 34.082ZM26.6148 38.3789C26.5822 41.3744 26.6148 44.3691 26.7125 47.3633C29.007 45.8416 31.3183 44.3441 33.646 42.8711C31.2988 41.3685 28.955 39.8711 26.6148 38.3789Z" fill="white"/>
<path opacity="0.945" fill-rule="evenodd" clip-rule="evenodd" d="M11.5756 64.3555C19.0628 64.3229 26.5498 64.3555 34.0365 64.4532C35.233 65.3108 35.4607 66.385 34.7201 67.6758C34.3213 68.0867 33.833 68.3147 33.2552 68.3594C26.3543 68.4897 19.4531 68.4897 12.5521 68.3594C10.8279 68.0617 10.2095 67.0526 10.6966 65.3321C11.0301 65.0319 11.3231 64.7063 11.5756 64.3555Z" fill="#23252F"/>
<path opacity="0.897" fill-rule="evenodd" clip-rule="evenodd" d="M40.4821 64.3555C42.7196 64.1526 43.5986 65.1292 43.1189 67.2852C41.8433 68.7778 40.6064 68.7128 39.4079 67.0899C39.0696 65.8817 39.4277 64.9702 40.4821 64.3555Z" fill="#23252F"/>
<path opacity="0.941" fill-rule="evenodd" clip-rule="evenodd" d="M11.5756 73.7305C16.9796 73.6979 22.3832 73.7305 27.7865 73.8282C29.0295 74.6758 29.2574 75.75 28.4701 77.0508C28.0713 77.4617 27.583 77.6897 27.0052 77.7344C22.1875 77.8647 17.3698 77.8647 12.5521 77.7344C10.8279 77.4367 10.2095 76.4276 10.6966 74.7071C11.0301 74.4069 11.3231 74.0813 11.5756 73.7305Z" fill="#23252F"/>
<path opacity="0.934" fill-rule="evenodd" clip-rule="evenodd" d="M35.0131 73.7305C37.3578 73.6979 39.7016 73.7305 42.0444 73.8282C43.1235 74.3983 43.4815 75.2772 43.1186 76.4649C42.7537 77.2502 42.1352 77.6733 41.2631 77.7344C39.1049 77.9061 36.9565 77.841 34.8178 77.5391C33.4713 76.1766 33.5364 74.9071 35.0131 73.7305Z" fill="#23252F"/>
<path opacity="0.947" fill-rule="evenodd" clip-rule="evenodd" d="M11.5756 83.1055C21.732 83.0729 31.8882 83.1055 42.0443 83.2032C43.2244 83.9352 43.5174 84.9444 42.9232 86.2305C42.4947 86.7541 41.9414 87.0471 41.2631 87.1094C31.6927 87.2397 22.1224 87.2397 12.5521 87.1094C10.8279 86.8117 10.2095 85.8026 10.6966 84.0821C11.0301 83.7819 11.3231 83.4563 11.5756 83.1055Z" fill="#23252F"/>
<path opacity="0.889" fill-rule="evenodd" clip-rule="evenodd" d="M30.1305 91.8945C32.1032 92.3895 32.6565 93.5613 31.7907 95.4102C30.7491 96.1914 29.7073 96.1914 28.6657 95.4102C27.8194 93.6545 28.3077 92.4826 30.1305 91.8945Z" fill="#23252F"/>
</g>
<defs>
<clipPath id="clip0_72_119">
<rect width="100" height="100" fill="white" transform="translate(0.149902)"/>
</clipPath>
</defs>
</svg>
