<svg width="100" height="100" viewBox="0 0 100 100" fill="none" xmlns="http://www.w3.org/2000/svg">
<g clip-path="url(#clip0_195_77)">
<path d="M39.8829 1.52306C36.3087 3.57384 36.0939 3.84728 35.9767 6.28868L35.879 8.06603L34.4142 10.6246C33.047 13.0465 32.9103 13.2027 31.8556 13.7887C31.2501 14.1207 30.5079 14.6676 30.1759 14.9996L29.59 15.6051L29.5314 19.1988C29.4728 22.1481 29.5314 22.8902 29.7658 23.3785C30.1173 24.0231 30.9572 24.7067 32.1486 25.3121C32.8517 25.6637 33.1447 26.0543 34.4533 28.3395C35.9376 30.9762 35.9376 30.9762 35.9376 32.4215C35.9376 33.5348 36.0353 34.0621 36.3869 34.7262C36.7775 35.5074 37.1095 35.7809 39.5509 37.2066C43.0665 39.2574 43.34 39.2965 45.3908 38.2613L46.9728 37.4606H50.0392H53.1056L54.629 38.2613C55.9181 38.9449 56.2501 39.0426 56.9142 38.9254C57.5978 38.8277 61.1525 36.9332 62.7736 35.8395C63.6134 35.2535 64.0626 34.1012 64.0626 32.402C64.0626 30.9762 64.0626 30.9566 65.547 28.3395C66.8556 26.0543 67.1486 25.6637 67.8517 25.3121C69.0431 24.7067 69.8829 24.0231 70.2345 23.3785C70.4689 22.8902 70.5275 22.1481 70.4689 19.1988L70.4103 15.6051L69.8244 14.9996C69.5119 14.6676 68.8087 14.1598 68.2423 13.8473C67.6954 13.5348 66.9728 13.0074 66.6408 12.6754C66.3087 12.3434 65.9181 12.0699 65.7423 12.0699C65.1564 12.0699 64.4728 12.5192 64.2579 13.0465C63.8283 14.1012 64.7658 15.3512 66.7579 16.3473L67.5783 16.7574V19.4527V22.1285L66.4454 22.7535C64.9611 23.5738 64.7853 23.7887 62.8712 27.109L61.2306 29.941L61.1329 31.6988L61.0353 33.4566L59.8634 34.1402C59.2189 34.5309 58.2033 35.1168 57.6173 35.4488L56.5431 36.0543L55.2736 35.2926L54.004 34.5309H50.0001H45.9962L44.7267 35.2926L43.4572 36.0543L42.3829 35.4488C41.797 35.1168 40.7814 34.5309 40.1369 34.1402L38.965 33.4176L38.8673 31.6793L38.7697 29.941L37.129 27.109C35.254 23.8473 34.9611 23.4957 33.4962 22.7145L32.422 22.1285V19.4918V16.8356L33.672 16.1129C35.0978 15.2926 35.1369 15.2535 37.2267 11.6793L38.7697 9.04259L38.8283 7.26525L38.9064 5.50743L41.1525 4.17931L43.4181 2.87071L44.6095 3.6129L45.8009 4.35509H50.0001H54.1994L55.3908 3.6129L56.5822 2.87071L58.8478 4.17931L61.0939 5.50743L61.172 7.34337C61.2306 8.984 61.2697 9.21837 61.6994 9.5504C62.3048 10.0387 63.1837 10.0192 63.6915 9.51134C64.0626 9.14025 64.1017 8.9254 64.0431 6.81603C63.9454 3.78868 63.8283 3.63243 60.0978 1.52306C57.5392 0.058215 57.2462 -0.0589725 56.4259 0.0191525C55.84 0.058215 55.1173 0.331653 54.3556 0.800402L53.1642 1.52306H50.0392H46.8947L45.7033 0.800402C44.922 0.351184 44.1798 0.058215 43.5939 0.0191525C42.7345 -0.0589725 42.4806 0.0386838 39.8829 1.52306Z" fill="#23252F"/>
<path d="M47.2656 11.0739C44.9609 11.816 43.125 13.4371 42.0312 15.7418C41.3281 17.2067 41.3086 17.3043 41.3086 19.4918C41.3086 21.6207 41.3477 21.816 41.9336 23.066C42.6367 24.5504 44.1992 26.3082 45.4688 27.0504C48.2031 28.652 51.7969 28.652 54.5312 27.0504C55.8008 26.3082 57.3633 24.5504 58.0664 23.066C58.6523 21.816 58.6914 21.6207 58.6914 19.4918C58.6914 17.3629 58.6523 17.1676 58.0664 15.9371C56.9141 13.4762 55.332 12.0114 52.9688 11.1715C51.3281 10.5856 48.8867 10.5465 47.2656 11.0739ZM52.4414 14.1012C55.2148 15.3903 56.543 18.6129 55.5273 21.5621C55.0781 22.8707 53.3789 24.5699 52.0703 25.0192C49.7852 25.8004 47.5586 25.2926 45.8789 23.6129C44.4922 22.2067 44.043 21.0348 44.1797 19.0231C44.3359 16.7965 45.5273 15.0582 47.5586 14.1012C48.9258 13.4567 51.0742 13.4567 52.4414 14.1012Z" fill="#23252F"/>
<path d="M16.172 28.7692C13.6916 30.1949 13.2814 30.6832 13.2814 32.2457C13.2619 33.359 13.1642 33.6129 12.2462 35.1754C11.4455 36.5035 10.9962 37.0309 10.2541 37.5192C8.76968 38.4762 8.57437 39.0426 8.63296 41.8942C8.69156 44.609 8.86734 44.9996 10.3712 45.859C11.0353 46.2692 11.4455 46.7379 12.2462 48.1246C13.1642 49.7067 13.2619 49.9801 13.2814 51.0739C13.2814 52.6168 13.6525 53.066 16.1134 54.4723C18.3986 55.7809 18.9845 55.859 20.3908 55.0582C21.4064 54.4918 21.6212 54.4528 23.34 54.4528C25.0392 54.4528 25.2931 54.5114 26.3283 55.0582C27.8126 55.859 28.4181 55.7614 30.8009 54.316C33.1447 52.9098 33.4572 52.4996 33.5158 50.8981C33.5548 49.8043 33.672 49.4723 34.5314 48.0074C35.3126 46.7184 35.7228 46.2301 36.4064 45.8199C37.9298 44.902 38.1056 44.4332 38.047 41.4254C37.9884 38.5348 37.8908 38.3395 36.2306 37.3434C35.0978 36.6793 33.4962 33.8668 33.5744 32.6364C33.6134 31.6403 33.047 30.2731 32.4416 29.902C30.1759 28.4957 28.5548 27.6949 27.9494 27.6949C27.5587 27.6949 26.8361 27.9489 26.2306 28.2809C25.2931 28.8278 25.0392 28.8668 23.34 28.8668C21.6603 28.8668 21.4064 28.8082 20.6447 28.3395C20.1759 28.0465 19.4533 27.7926 18.9455 27.7535C18.1642 27.6754 17.8517 27.7926 16.172 28.7692ZM23.34 31.6989C25.9376 31.6989 26.1134 31.6793 26.9728 31.191L27.8908 30.6832L29.258 31.4449L30.6251 32.2067L30.6056 33.2418C30.5861 34.1598 30.7033 34.4918 31.7384 36.2887C33.1056 38.6715 33.5353 39.2184 34.4533 39.7067L35.1564 40.0973V41.6598V43.2223L34.2189 43.7301C33.3986 44.1793 33.1447 44.5114 31.9337 46.6403C30.7228 48.8082 30.5861 49.1598 30.6056 50.0582L30.6251 51.0739L29.3947 51.777C28.7111 52.1871 28.047 52.4996 27.9494 52.4996C27.8517 52.4996 27.3244 52.2653 26.8166 51.9918C25.9181 51.5231 25.7619 51.5035 23.1447 51.5621C20.7033 51.6207 20.3322 51.6598 19.7072 52.0504C19.3166 52.3043 18.8869 52.4996 18.7501 52.4996C18.6134 52.4996 18.008 52.1871 17.383 51.816L16.2697 51.1324L16.172 50.0192C16.0744 49.0817 15.84 48.4957 14.7267 46.5817C13.5939 44.6285 13.2423 44.1989 12.4611 43.7106L11.5236 43.1246V41.5817C11.5236 40.1754 11.5627 40.0192 11.9337 39.902C12.7541 39.6285 13.6916 38.5543 14.8634 36.4645C15.8009 34.7848 16.0939 34.0621 16.1916 33.2028L16.3087 32.0895L17.5392 31.3864L18.7697 30.6637L19.6876 31.191C20.5666 31.6793 20.7423 31.6989 23.34 31.6989Z" fill="#23252F"/>
<path d="M20.957 35.527C19.5898 36.0543 18.1055 37.4215 17.4414 38.7887C16.9727 39.7653 16.8945 40.1364 16.8945 41.6598C16.8945 43.7496 17.3242 44.8434 18.75 46.2496C20.1562 47.6754 21.25 48.1051 23.3398 48.1051C24.8633 48.1051 25.2344 48.027 26.2109 47.5582C30.2734 45.566 31.1523 40.2535 27.9492 37.0504C26.0742 35.1949 23.3789 34.5895 20.957 35.527ZM25 38.4176C26.1523 39.0426 26.8164 40.0387 26.9141 41.3278C27.0312 43.0856 26.2891 44.3356 24.7461 44.9801C23.4961 45.5074 21.8359 45.234 20.8203 44.3356C20.2539 43.8278 19.7266 42.5387 19.7266 41.6012C19.7266 40.7223 20.2148 39.5309 20.8203 38.984C21.9141 38.0074 23.7695 37.7535 25 38.4176Z" fill="#23252F"/>
<path d="M69.2971 28.9059C67.4807 29.9411 67.1291 30.2145 66.7971 30.9372C66.5236 31.4645 66.4064 32.07 66.426 32.6364C66.5041 33.8669 64.9025 36.6794 63.7697 37.3434C62.1096 38.3395 62.0119 38.5348 61.9533 41.4254C61.8947 43.8669 61.9143 44.0426 62.3439 44.6872C62.5978 45.0583 63.1838 45.5661 63.633 45.82C64.258 46.1715 64.6682 46.6403 65.4299 47.9489C66.3088 49.4333 66.426 49.7848 66.4846 50.8786C66.5432 52.5192 66.8752 52.9098 69.1994 54.3161C71.6018 55.7614 72.1877 55.859 73.7111 55.0583C74.7463 54.5114 75.0002 54.4528 76.6799 54.4528C78.3791 54.4528 78.6135 54.4919 79.6096 55.0583C81.0353 55.8786 81.6799 55.7809 84.0432 54.3747C86.4064 52.9879 86.7189 52.6169 86.7189 51.0544C86.7385 49.9801 86.8361 49.6872 87.7541 48.1247C88.5549 46.7379 88.965 46.2692 89.6291 45.859C91.133 44.9997 91.3088 44.609 91.3674 41.8942C91.426 39.0426 91.2307 38.4762 89.7463 37.4997C89.0041 36.9919 88.5353 36.445 87.7541 35.1559C86.8361 33.6129 86.7385 33.359 86.7189 32.2458C86.7189 30.6637 86.3088 30.1754 83.7697 28.7497C82.051 27.7731 81.7189 27.6559 80.9963 27.734C80.5275 27.7926 79.7853 28.0661 79.3361 28.359C78.6135 28.8083 78.34 28.8669 76.6994 28.8669C75.0393 28.8669 74.7658 28.8083 73.8088 28.2809C72.2463 27.4215 71.7385 27.4997 69.2971 28.9059ZM76.6603 31.6989C79.258 31.6989 79.4338 31.6794 80.3127 31.1911L81.2307 30.6637L82.4611 31.3864L83.6916 32.0895L83.8088 33.2028C83.9064 34.0622 84.1994 34.7848 85.1369 36.4645C86.3088 38.5544 87.2463 39.6286 88.0666 39.902C88.4377 40.0192 88.4768 40.1754 88.4768 41.5817V43.1247L87.5393 43.7106C86.758 44.1989 86.4064 44.6286 85.2736 46.5817C84.1603 48.4958 83.926 49.0817 83.8283 50.0192L83.7307 51.152L82.5783 51.8161C81.9533 52.1872 81.3283 52.4997 81.2111 52.4997C81.0939 52.4997 80.6838 52.3044 80.2932 52.0504C79.6682 51.6598 79.2971 51.6208 76.8557 51.5622C74.2385 51.5036 74.0822 51.5231 73.1838 51.9919C72.676 52.2653 72.1486 52.4997 72.051 52.4997C71.9338 52.4997 71.2893 52.1676 70.6057 51.7575L69.3752 51.0348L69.3947 50.0387C69.4143 49.1598 69.2775 48.7887 68.0666 46.6403C66.8557 44.5114 66.6018 44.1794 65.7814 43.7301L64.8439 43.2223V41.6598V40.0973L65.5471 39.7067C66.465 39.2184 66.8947 38.6715 68.2424 36.3083C69.258 34.5309 69.3947 34.1989 69.3752 33.2614V32.2067L70.7424 31.445L72.1096 30.6833L73.0275 31.1911C73.8869 31.6794 74.0627 31.6989 76.6603 31.6989Z" fill="#23252F"/>
<path d="M74.1212 35.6051C72.6173 36.2106 71.0938 37.7731 70.5274 39.316C69.336 42.4606 70.7813 46.0739 73.7892 47.5582C74.7657 48.027 75.1368 48.1051 76.6602 48.1051C78.1837 48.1051 78.5548 48.027 79.5313 47.5582C80.7813 46.9528 81.9727 45.7028 82.6563 44.3356C83.0274 43.5739 83.1056 43.1051 83.1056 41.6598C83.1056 40.1364 83.0274 39.7653 82.5587 38.7887C81.0352 35.7028 77.3438 34.2965 74.1212 35.6051ZM78.7892 38.691C81.4063 40.7028 80.3126 44.8629 77.0704 45.2145C74.7071 45.4879 72.9102 43.7496 73.086 41.3278C73.1837 40.0387 73.8282 39.0426 75.0001 38.3981C76.0157 37.8317 77.8517 37.9879 78.7892 38.691Z" fill="#23252F"/>
<path d="M2.73438 49.8239C1.28906 50.2926 0 52.1285 0 53.7496C0 55.9176 1.40625 62.1676 2.63672 65.4879C6.38672 75.5856 13.1055 83.5348 22.9102 89.5114C23.2227 89.6871 23.2227 89.7653 22.9102 90.5856C22.2852 92.3043 22.4609 92.5973 26.3477 96.484C29.2383 99.3942 29.8828 99.9606 30.3711 99.9606C30.8398 99.9606 31.5234 99.3746 34.6094 96.3082C37.8906 93.0465 38.2812 92.5778 38.2812 92.0114C38.2812 91.191 37.6953 90.5856 36.875 90.5856C36.3477 90.5856 35.8594 90.9762 33.3008 93.5153L30.3516 96.4449L27.9688 94.0426L25.5859 91.6598L33.0078 84.2379L40.4297 76.816L42.8125 79.2184L45.2148 81.6012L42.4219 84.3942C39.8828 86.9332 39.6484 87.2262 39.6484 87.8707C39.6484 88.7496 40.1367 89.2184 41.0352 89.2184C41.6406 89.2184 42.0312 88.9059 45.1758 85.7418C48.3398 82.5582 48.6328 82.2262 48.6328 81.6012C48.6328 80.9567 48.3594 80.6246 45.2734 77.5582C43.1836 75.4879 41.6992 74.1598 41.3672 74.0817C40.7812 73.9254 39.5508 74.0231 39.0234 74.2574C38.75 74.3942 38.418 74.0231 37.3242 72.2848C36.5625 71.1324 34.6875 68.2028 33.1445 65.7809C30 60.8981 29.4727 60.3317 27.7734 60.1559C25.3906 59.941 23.4375 61.6598 23.4375 63.9645C23.4375 64.4723 23.7109 66.3864 24.0234 68.2223C24.3555 70.0387 24.6094 71.8356 24.6094 72.2262C24.6094 73.1246 24.1992 73.7106 23.3398 73.984C22.7734 74.1793 22.5391 74.1403 21.7578 73.8082C18.4375 72.3239 14.6289 68.652 12.6367 64.9996C11.5625 63.027 11.1914 61.9137 10.0391 57.2848C9.45312 54.941 8.82812 52.7145 8.67188 52.3629C8.18359 51.3668 6.79688 50.2145 5.64453 49.8824C4.47266 49.5309 3.71094 49.5114 2.73438 49.8239ZM5.625 53.1442C5.97656 53.4957 6.32812 54.5895 7.20703 58.0856C8.4375 62.8903 8.76953 63.8473 10.0195 66.2692C12.168 70.3903 16.0156 74.1793 20.293 76.3278C22.9883 77.6949 25.8984 76.8356 27.0703 74.277C27.6953 72.9684 27.6758 71.9723 26.9531 67.9293C26.25 63.9449 26.2305 63.5153 26.7773 63.2418C27.6758 62.7535 27.9102 63.027 32.3047 69.902L36.582 76.5621L31.0938 82.0504L25.6055 87.5387L24.8828 87.2067C22.3633 85.9957 18.0078 82.6559 15.0391 79.6676C10.4297 74.9996 7.03125 69.4918 5 63.4176C4.10156 60.7418 3.28125 57.0309 3.02734 54.6285C2.91016 53.4371 2.92969 53.2809 3.32031 52.8903C3.86719 52.3434 4.94141 52.4606 5.625 53.1442Z" fill="#23252F"/>
<path d="M94.1797 49.941C93.0469 50.3317 91.7969 51.4254 91.3281 52.402C91.1719 52.734 90.5469 54.941 89.9609 57.2848C89.375 59.6481 88.7109 62.0699 88.4766 62.6559C86.9922 66.4645 83.9844 70.1754 80.5273 72.4801C78.3984 73.9059 77.4805 74.2574 76.6602 73.984C75.8008 73.7106 75.3906 73.1246 75.3906 72.2262C75.3906 71.8356 75.6445 70.0387 75.9766 68.2223C76.2891 66.3864 76.5625 64.4723 76.5625 63.9645C76.5625 61.6598 74.6094 59.941 72.2266 60.1559C70.5273 60.3317 70 60.8981 66.8555 65.7809C65.3125 68.2028 63.4375 71.1324 62.6758 72.2848C61.582 74.0231 61.25 74.3942 60.9766 74.2574C60.4492 74.0231 59.2188 73.9254 58.6328 74.0817C58.3008 74.1598 56.8164 75.4879 54.7461 77.5582C51.6406 80.6442 51.3672 80.9567 51.3672 81.6012C51.3672 82.2457 51.875 82.7926 60.2148 91.1324C67.8711 98.7692 69.1211 99.9606 69.6289 99.9606C70.1172 99.9606 70.7422 99.4137 73.6523 96.484C77.5391 92.5973 77.7148 92.3043 77.0898 90.5856C76.7773 89.7653 76.7773 89.6871 77.0898 89.5114C78.8086 88.4762 82.0703 86.191 82.3242 85.859C82.4805 85.6051 82.6172 85.2145 82.6172 84.9606C82.6172 84.3942 81.7969 83.5543 81.2305 83.5543C80.9961 83.5543 79.6875 84.2965 78.3398 85.1949C76.9922 86.1129 75.5469 87.0114 75.1367 87.1871L74.3945 87.5387L68.9062 82.0504L63.418 76.5621L67.6953 69.902C72.0898 63.027 72.3242 62.7535 73.2227 63.2418C73.7695 63.5153 73.75 63.9449 73.0469 67.9293C72.3242 71.9723 72.3047 72.9684 72.9297 74.277C73.7305 76.0153 75.2539 76.9528 77.2656 76.9723C78.2617 76.9723 78.7109 76.8356 79.9023 76.2301C84.0625 74.1207 87.8516 70.3707 89.9805 66.2692C91.2305 63.8473 91.5625 62.8903 92.793 58.0856C94.0234 53.1832 94.2383 52.7731 95.5469 52.5778C96.0938 52.4801 96.3281 52.5387 96.6797 52.8903C97.0703 53.2809 97.1094 53.4567 96.9922 54.5309C96.7383 56.8356 95.8789 60.6246 95 63.2418C93.0469 69.1207 89.9414 74.3551 85.5664 79.1207C84.4922 80.2926 84.1797 80.7614 84.1797 81.2106C84.1797 81.9918 84.7852 82.5778 85.625 82.5778C86.2109 82.5778 86.4844 82.3629 87.793 80.9957C94.1406 74.2184 98.3789 65.4098 99.707 56.1715C100.117 53.3785 100 52.402 99.1602 51.2887C97.9688 49.7457 96.1133 49.2379 94.1797 49.941ZM67.0508 84.2965L74.4141 91.6598L72.0117 94.0621L69.6289 96.4449L62.207 89.0231L54.7852 81.6012L57.1289 79.2574C58.418 77.9684 59.5117 76.9137 59.5703 76.9137C59.6289 76.9137 62.9883 80.234 67.0508 84.2965Z" fill="#23252F"/>
</g>
<defs>
<clipPath id="clip0_195_77">
<rect width="99.9359" height="99.9606" fill="white"/>
</clipPath>
</defs>
</svg>
