<svg width="101" height="100" viewBox="0 0 101 100" fill="none" xmlns="http://www.w3.org/2000/svg">
<g clip-path="url(#clip0_72_166)">
<path opacity="0.944" fill-rule="evenodd" clip-rule="evenodd" d="M100.668 12.9883C100.668 34.2123 100.668 55.4361 100.668 76.6602C99.8219 79.8777 97.7919 81.9936 94.5775 83.0078C88.2352 83.2951 81.8833 83.3928 75.5216 83.3008C75.5544 86.3613 75.5216 89.4213 75.4233 92.4805C74.7735 93.2279 73.9551 93.4559 72.9677 93.1641C71.0359 91.2436 69.104 89.3229 67.1723 87.4024C65.306 89.2578 63.4397 91.1133 61.5734 92.9688C60.7876 93.3594 60.0018 93.3594 59.2159 92.9688C59.0274 92.6916 58.8637 92.3986 58.7248 92.0899C58.6266 89.1609 58.5938 86.2313 58.6266 83.3008C41.4041 83.3334 24.1816 83.3008 6.95936 83.2031C3.34232 82.3736 1.05037 80.1926 0.0834961 76.6602C0.0834961 55.4361 0.0834961 34.2123 0.0834961 12.9883C1.1116 9.65549 3.33808 7.53961 6.76291 6.64063C35.838 6.51042 64.9131 6.51042 93.9882 6.64063C97.413 7.53961 99.6396 9.65549 100.668 12.9883ZM7.35227 10.0586C36.0345 10.026 64.7166 10.0586 93.3988 10.1563C95.1812 10.6913 96.3928 11.8306 97.0332 13.5742C97.1642 34.4076 97.1642 55.2408 97.0332 76.0742C96.4552 78.0162 95.1783 79.2205 93.2024 79.6875C87.3092 79.7852 81.4156 79.8178 75.5216 79.7852C75.4888 77.3104 75.5216 74.8363 75.6198 72.3633C76.1437 71.8424 76.6675 71.3217 77.1914 70.8008C79.0577 72.6563 80.924 74.5117 82.7903 76.3672C83.8013 76.8563 84.6853 76.6936 85.4425 75.8789C85.7012 67.8826 85.832 59.8748 85.8354 51.8555C86.1473 50.9469 86.5074 50.068 86.9159 49.2188C90.676 48.5465 92.084 46.3654 91.1396 42.6758C93.6668 41.3611 94.5182 39.343 93.6935 36.6211C93.4108 36.015 93.0505 35.4617 92.613 34.9609C94.2391 32.9559 94.4027 30.84 93.1041 28.6133C92.4494 28.0924 91.7944 27.5717 91.1396 27.0508C91.9967 23.3199 90.5233 21.1391 86.7194 20.5078C86.076 16.6729 83.8496 15.1755 80.04 16.0156C78.6941 13.5725 76.6641 12.7262 73.9499 13.4766C73.3347 13.7959 72.7453 14.154 72.1819 14.5508C70.1916 12.9427 68.096 12.7799 65.8954 14.0625C65.3243 14.6779 64.8003 15.3289 64.3237 16.0156C60.5581 15.1687 58.3643 16.6335 57.7425 20.4102C53.9143 20.9965 52.4409 23.1449 53.3223 26.8555C52.6609 27.4625 51.9733 28.0484 51.2596 28.6133C50.4313 29.8596 50.1695 31.2268 50.4738 32.7148C50.8402 33.467 51.2003 34.2156 51.5543 34.9609C51.1747 35.6174 50.8144 36.301 50.4738 37.0117C49.9388 39.4301 50.7573 41.2203 52.9294 42.3828C53.0852 42.5947 53.2163 42.8227 53.3223 43.0664C52.4469 46.593 53.8221 48.6438 57.4479 49.2188C57.8223 50.0867 58.1826 50.9656 58.5284 51.8555C58.6266 61.1652 58.6594 70.475 58.6266 79.7852C41.6006 79.8178 24.5745 79.7852 7.54872 79.6875C5.57279 79.2205 4.29585 78.0162 3.71788 76.0742C3.58691 55.2408 3.58691 34.4076 3.71788 13.5742C4.39396 11.8275 5.60543 10.6556 7.35227 10.0586ZM68.2528 16.6992C69.0993 16.8916 69.8851 17.2497 70.6102 17.7734C71.6558 18.1461 72.7035 18.1461 73.7535 17.7734C74.388 17.3686 75.0428 17.0106 75.718 16.6992C76.3805 17.4565 77.1009 18.2052 77.879 18.9453C79.2444 19.7225 80.6523 19.8201 82.1028 19.2383C82.2501 19.3605 82.4139 19.4582 82.5939 19.5313C82.8255 20.6772 83.2512 21.7514 83.8708 22.7539C84.9317 23.7137 86.176 24.2996 87.6035 24.5117C87.7017 24.707 87.7999 24.9023 87.8981 25.0977C87.0322 27.7389 87.8508 29.692 90.3538 30.957C90.4831 31.7473 90.2212 32.3982 89.568 32.9102C88.9382 34.2152 88.9382 35.5172 89.568 36.8164C89.9157 37.3129 90.2104 37.8338 90.452 38.3789C90.4463 38.6775 90.3153 38.9055 90.0591 39.0625C88.4421 39.899 87.5909 41.2336 87.5052 43.0664C87.6093 43.734 87.7076 44.3852 87.7999 45.0195C87.6363 45.1822 87.4724 45.3451 87.3088 45.5078C85.8134 45.5838 84.602 46.2024 83.6744 47.3633C83.2392 48.3834 82.8135 49.3924 82.3974 50.3906C80.76 49.9453 79.1884 50.1406 77.6826 50.9766C77.0142 51.76 76.3266 52.5086 75.6198 53.2227C73.3278 51.3998 71.0359 51.3998 68.7439 53.2227C68.0567 52.6106 67.4346 51.927 66.8776 51.1719C65.4463 50.1838 63.9074 49.9561 62.261 50.4883C62.0895 50.4424 61.9256 50.3772 61.7698 50.293C61.5427 48.7025 60.8225 47.368 59.6089 46.2891C58.6429 45.8492 57.6606 45.4912 56.6621 45.2149C56.5774 45.06 56.5118 44.8971 56.4656 44.7266C57.2817 42.249 56.5613 40.3611 54.3046 39.0625C54.0484 38.9055 53.9174 38.6775 53.9117 38.3789C54.3105 37.6873 54.6706 36.9711 54.9922 36.2305C55.1232 35.319 55.1232 34.4076 54.9922 33.4961C54.6516 32.7854 54.2913 32.1018 53.9117 31.4453C54.1034 30.8869 54.4964 30.4963 55.0904 30.2734C56.733 28.7223 57.2241 26.8668 56.5638 24.707C57.3172 24.2689 58.1358 23.976 59.0195 23.8281C60.1137 23.2533 60.8667 22.3744 61.2787 21.1914C61.2021 20.3189 61.5294 19.6678 62.261 19.2383C65.0027 20.1379 66.9998 19.2916 68.2528 16.6992ZM70.2173 25.0977C75.3017 24.5316 79.0015 26.4848 81.3169 30.957C83.1978 36.9379 81.3315 41.3324 75.718 44.1406C70.8621 45.6129 66.9002 44.3434 63.8326 40.332C61.05 35.0861 61.9341 30.5613 66.4847 26.7578C67.687 26.0682 68.9312 25.5148 70.2173 25.0977ZM63.9308 53.6133C64.1707 53.7164 64.3998 53.8467 64.6184 54.0039C65.3958 55.6107 66.6727 56.5223 68.4492 56.7383C68.6129 62.9221 68.7111 69.107 68.7439 75.293C69.1571 76.4588 69.9757 76.882 71.1996 76.5625C71.4807 76.4717 71.7098 76.3088 71.8872 76.0742C72.0182 79.7201 72.0182 83.3658 71.8872 87.0117C70.7413 85.8725 69.5952 84.733 68.4492 83.5938C67.7023 83.0414 66.9165 82.9764 66.0918 83.3984C64.8149 84.668 63.5379 85.9375 62.261 87.207C62.1627 76.1395 62.1299 65.0719 62.1627 54.0039C62.8073 54.0195 63.3967 53.8893 63.9308 53.6133ZM80.2365 53.6133C80.861 53.8658 81.5158 53.9961 82.201 54.0039C82.2338 59.5381 82.201 65.0721 82.1028 70.6055C80.8258 69.3359 79.5489 68.0664 78.2719 66.7969C77.5515 66.4063 76.8313 66.4063 76.1109 66.7969C74.834 68.0664 73.557 69.3359 72.2801 70.6055C72.1164 65.5262 72.1491 60.4481 72.3783 55.3711C74.2275 56.9303 76.1921 57.0932 78.2719 55.8594C78.9554 55.107 79.6102 54.3582 80.2365 53.6133Z" fill="#23252F"/>
<path opacity="0.944" fill-rule="evenodd" clip-rule="evenodd" d="M17.1749 19.8242C27.9146 19.7916 38.6539 19.8242 49.3932 19.9219C50.0973 20.2469 50.4248 20.8002 50.3755 21.5821C50.4381 22.4696 50.0452 23.0229 49.1968 23.2422C38.6537 23.3073 28.1108 23.3725 17.5678 23.4375C15.5902 23.9063 14.3132 25.1106 13.7369 27.0508C13.606 38.8998 13.606 50.7487 13.7369 62.5977C14.2436 64.7287 15.586 65.9983 17.7642 66.4063C28.8966 66.4713 40.0289 66.5365 51.1613 66.6016C52.3724 67.5752 52.4378 68.6168 51.3577 69.7266C40.0452 70.0504 28.7163 70.1157 17.3713 69.9219C13.5151 69.1969 11.1249 66.9508 10.2008 63.1836C10.0698 51.0092 10.0698 38.8346 10.2008 26.6602C11.0752 22.8936 13.3999 20.6149 17.1749 19.8242Z" fill="#23252F"/>
<path opacity="0.934" fill-rule="evenodd" clip-rule="evenodd" d="M71.7887 21.3867C80.247 21.9834 84.8965 26.4756 85.7369 34.8633C85.3189 41.8512 81.7173 46.2457 74.932 48.0469C67.752 48.9867 62.6116 46.2199 59.5104 39.7461C57.3457 32.1994 59.6703 26.5027 66.4845 22.6562C68.2152 21.968 69.9833 21.5449 71.7887 21.3867ZM70.2171 25.0977C68.9309 25.5148 67.6868 26.0682 66.4845 26.7578C61.9338 30.5613 61.0498 35.0861 63.8324 40.332C66.9 44.3434 70.8619 45.6129 75.7178 44.1406C81.3312 41.3324 83.1976 36.9379 81.3167 30.957C79.0013 26.4848 75.3015 24.5316 70.2171 25.0977Z" fill="#23252F"/>
<path opacity="0.939" fill-rule="evenodd" clip-rule="evenodd" d="M19.7288 29.7852C27.9146 29.7526 36.1003 29.7852 44.2855 29.8828C45.7744 30.892 45.8398 31.9987 44.4819 33.2032C36.1655 33.3334 27.8488 33.3334 19.5324 33.2032C18.3345 32.4946 18.1053 31.5504 18.8448 30.3711C19.1215 30.1209 19.4162 29.9256 19.7288 29.7852Z" fill="#23252F"/>
<path opacity="0.94" fill-rule="evenodd" clip-rule="evenodd" d="M19.7287 36.4258C27.8491 36.3932 35.9691 36.4258 44.0889 36.5235C45.4782 37.086 45.8057 38.0299 45.0711 39.3555C44.8747 39.5182 44.6782 39.6811 44.4818 39.8438C36.0997 39.9741 27.7178 39.9741 19.3358 39.8438C18.0176 38.5358 18.1486 37.3963 19.7287 36.4258Z" fill="#23252F"/>
<path opacity="0.941" fill-rule="evenodd" clip-rule="evenodd" d="M19.925 43.0664C27.9144 43.0338 35.9036 43.0664 43.8923 43.1641C45.4555 43.7237 45.8156 44.7326 44.9728 46.1914C44.8255 46.3137 44.6616 46.4114 44.4817 46.4844C36.0996 46.6147 27.7177 46.6147 19.3357 46.4844C18.3027 45.684 18.139 44.7401 18.8445 43.6524C19.2131 43.4358 19.5733 43.2405 19.925 43.0664Z" fill="#23252F"/>
<path opacity="0.932" fill-rule="evenodd" clip-rule="evenodd" d="M24.8365 53.2228C25.5198 53.161 26.1748 53.2587 26.801 53.5157C27.3824 54.4437 27.9391 55.3876 28.4709 56.3478C29.0447 57.0493 29.7323 57.6026 30.5337 58.0079C30.8503 58.1485 31.145 58.1161 31.4177 57.9103C31.5075 55.9942 32.4571 55.3107 34.2663 55.8595C34.7069 56.3454 35.0998 56.8661 35.445 57.422C38.9008 58.7862 42.5024 59.5024 46.2499 59.5704C47.2976 60.612 47.2976 61.6538 46.2499 62.6954C41.9606 63.0605 37.835 62.3769 33.8734 60.6446C30.9947 62.2788 28.4737 61.8232 26.3099 59.2774C24.6528 61.5159 22.459 62.8507 19.7287 63.2814C18.5619 62.7312 18.2018 61.8523 18.6482 60.6446C20.1845 59.8151 21.6251 58.8386 22.9702 57.7149C23.6926 56.7312 24.0201 55.6243 23.9525 54.3946C24.1104 53.8778 24.4051 53.4872 24.8365 53.2228Z" fill="#23252F"/>
</g>
<defs>
<clipPath id="clip0_72_166">
<rect width="100.584" height="100" fill="white" transform="translate(0.181641)"/>
</clipPath>
</defs>
</svg>
