<svg width="101" height="100" viewBox="0 0 101 100" fill="none" xmlns="http://www.w3.org/2000/svg">
<path opacity="0.979" fill-rule="evenodd" clip-rule="evenodd" d="M9.23194 3.02735C36.4456 2.99479 63.6591 3.02735 90.8726 3.125C94.0302 3.93881 96.0157 5.92448 96.8296 9.08203C96.9599 29.0039 96.9599 48.9258 96.8296 68.8477C96.0157 72.0053 94.0302 73.9908 90.8726 74.8047C80.3909 74.9023 69.9093 74.935 59.4273 74.9023C59.4273 78.0273 59.4273 81.1523 59.4273 84.2773C63.0085 84.2447 66.5894 84.2773 70.1694 84.375C71.7646 84.9283 72.8388 86.0025 73.3921 87.5977C73.581 90.5455 73.5157 93.4752 73.1968 96.3867C73.0503 96.509 72.8874 96.6066 72.7085 96.6797C57.6044 96.81 42.5001 96.81 27.396 96.6797C27.2171 96.6066 27.0542 96.509 26.9077 96.3867C26.5888 93.4752 26.5235 90.5455 26.7124 87.5977C27.2657 86.0025 28.3399 84.9283 29.9351 84.375C33.5151 84.2773 37.096 84.2447 40.6773 84.2773C40.6773 81.1523 40.6773 78.0273 40.6773 74.9023C30.1952 74.935 19.7136 74.9023 9.23194 74.8047C6.07438 73.9908 4.08872 72.0053 3.27491 68.8477C3.14469 48.9258 3.14469 29.0039 3.27491 9.08203C4.1243 5.9216 6.10999 3.90336 9.23194 3.02735ZM10.9898 6.15235C18.8023 6.15235 26.6148 6.15235 34.4273 6.15235C34.4273 14.4857 34.4273 22.8189 34.4273 31.1523C33.3857 31.1523 32.3439 31.1523 31.3023 31.1523C31.7495 26.7211 29.9265 23.6611 25.8335 21.9727C26.1189 21.4098 26.3466 20.8238 26.5171 20.2148C26.6474 18.1315 26.6474 16.0482 26.5171 13.9648C25.2759 10.2659 22.7042 8.73598 18.8023 9.375C15.134 10.6184 13.5715 13.19 14.1148 17.0898C13.9572 18.7951 14.2176 20.4227 14.896 21.9727C10.8096 23.6566 8.9867 26.7164 9.42725 31.1523C8.38559 31.1523 7.34391 31.1523 6.30225 31.1523C6.21215 23.984 6.30981 16.8226 6.59522 9.66797C7.35034 7.57543 8.81518 6.40356 10.9898 6.15235ZM37.5523 6.15235C45.8857 6.15235 54.2189 6.15235 62.5523 6.15235C62.5523 14.4857 62.5523 22.8189 62.5523 31.1523C62.0314 31.1523 61.5107 31.1523 60.9898 31.1523C61.437 26.7211 59.614 23.6611 55.521 21.9727C55.8064 21.4098 56.0341 20.8238 56.2046 20.2148C56.3349 18.1315 56.3349 16.0482 56.2046 13.9648C54.9634 10.2659 52.3917 8.73598 48.4898 9.375C44.8216 10.6184 43.2591 13.19 43.8023 17.0898C43.6446 18.7951 43.9052 20.4227 44.5835 21.9727C40.4972 23.6566 38.6741 26.7164 39.1148 31.1523C38.5939 31.1523 38.0732 31.1523 37.5523 31.1523C37.5523 22.8189 37.5523 14.4857 37.5523 6.15235ZM65.6773 6.15235C73.4899 6.11979 81.3024 6.15235 89.1148 6.25C91.8165 6.60807 93.3466 8.13803 93.7046 10.8398C93.8023 17.6104 93.8349 24.3813 93.8023 31.1523C92.7607 31.1523 91.7189 31.1523 90.6773 31.1523C91.0562 28.7941 90.5353 26.6783 89.1148 24.8047C91.7702 23.5627 92.7794 21.5119 92.1421 18.6523C90.9411 16.0012 88.923 15.0246 86.0874 15.7227C85.897 11.6587 83.7812 9.51024 79.7398 9.27735C77.4507 9.23362 75.6605 10.1451 74.3687 12.0117C73.597 13.6111 73.304 15.3039 73.4898 17.0898C73.3321 18.7951 73.5927 20.4227 74.271 21.9727C70.1847 23.6566 68.3616 26.7164 68.8023 31.1523C67.7607 31.1523 66.7189 31.1523 65.6773 31.1523C65.6773 22.8189 65.6773 14.4857 65.6773 6.15235ZM19.3882 12.5977C21.7136 12.259 23.0155 13.2356 23.2944 15.5273C21.3413 15.5273 19.3882 15.5273 17.4351 15.5273C17.4681 14.129 18.1192 13.1524 19.3882 12.5977ZM47.3179 14.5508C48.0091 12.903 49.246 12.2845 51.0288 12.6953C51.2892 12.8255 51.5497 12.9557 51.8101 13.0859C50.3415 13.6731 48.844 14.1614 47.3179 14.5508ZM78.7632 12.5977C81.0886 12.259 82.3905 13.2356 82.6694 15.5273C80.7163 15.5273 78.7632 15.5273 76.8101 15.5273C76.8431 14.129 77.4942 13.1524 78.7632 12.5977ZM52.7866 16.3086C53.0394 16.6109 53.1696 17.0015 53.1773 17.4805C53.2935 20.3922 51.9263 21.727 49.0757 21.4844C47.7614 20.9086 47.0452 19.8994 46.9273 18.457C48.8978 17.7357 50.8509 17.0195 52.7866 16.3086ZM17.4351 18.6523C19.3882 18.6523 21.3413 18.6523 23.2944 18.6523C23.1655 20.474 22.189 21.4506 20.3647 21.582C18.5405 21.4506 17.564 20.474 17.4351 18.6523ZM76.8101 18.6523C78.7632 18.6523 80.7163 18.6523 82.6694 18.6523C82.5405 20.474 81.564 21.4506 79.7398 21.582C77.9155 21.4506 76.939 20.474 76.8101 18.6523ZM86.9663 18.8477C88.7925 18.8214 89.3134 19.6352 88.5288 21.2891C86.8601 21.9379 86.1114 21.3846 86.2827 19.6289C86.4175 19.2675 86.6452 19.0071 86.9663 18.8477ZM17.2398 24.9023C17.7606 24.9023 18.2814 24.9023 18.8023 24.9023C18.8023 25.9439 18.8023 26.9857 18.8023 28.0273C19.8439 28.0273 20.8856 28.0273 21.9272 28.0273C21.9272 26.9857 21.9272 25.9439 21.9272 24.9023C26.1591 24.8373 28.2423 26.9205 28.1773 31.1523C22.9689 31.1523 17.7606 31.1523 12.5523 31.1523C12.2935 27.642 13.856 25.5586 17.2398 24.9023ZM46.9273 24.9023C49.0116 24.8697 51.095 24.9023 53.1773 25C56.5995 25.5943 58.162 27.6451 57.8648 31.1523C52.6564 31.1523 47.4482 31.1523 42.2398 31.1523C41.981 27.642 43.5435 25.5586 46.9273 24.9023ZM76.6148 24.9023C77.1357 24.9023 77.6564 24.9023 78.1773 24.9023C78.1773 26.9857 78.1773 29.0689 78.1773 31.1523C76.0939 31.1523 74.0107 31.1523 71.9273 31.1523C71.6685 27.642 73.231 25.5586 76.6148 24.9023ZM81.3023 24.9023C85.5341 24.8373 87.6173 26.9205 87.5523 31.1523C85.4689 31.1523 83.3857 31.1523 81.3023 31.1523C81.3023 29.0689 81.3023 26.9857 81.3023 24.9023ZM6.30225 34.2773C15.6773 34.2773 25.0523 34.2773 34.4273 34.2773C34.4273 42.6107 34.4273 50.9439 34.4273 59.2773C33.3857 59.2773 32.3439 59.2773 31.3023 59.2773C31.6812 56.9191 31.1603 54.8033 29.7398 52.9297C32.3952 51.6877 33.4044 49.6369 32.7671 46.7773C31.5661 44.1262 29.548 43.1496 26.7124 43.8477C26.522 39.7836 24.4062 37.6352 20.3647 37.4023C16.3234 37.6352 14.2075 39.7836 14.0171 43.8477C10.367 43.1676 8.25106 44.6648 7.66944 48.3398C7.83463 50.5553 8.94141 52.0852 10.9898 52.9297C9.56926 54.8033 9.04842 56.9191 9.42725 59.2773C8.38559 59.2773 7.34391 59.2773 6.30225 59.2773C6.30225 50.9439 6.30225 42.6107 6.30225 34.2773ZM37.5523 34.2773C45.8857 34.2773 54.2189 34.2773 62.5523 34.2773C62.5523 42.6107 62.5523 50.9439 62.5523 59.2773C62.0314 59.2773 61.5107 59.2773 60.9898 59.2773C61.437 54.8461 59.614 51.7861 55.521 50.0977C55.8064 49.5348 56.0341 48.9488 56.2046 48.3398C56.3349 46.2564 56.3349 44.1732 56.2046 42.0898C54.9634 38.391 52.3917 36.8609 48.4898 37.5C44.8216 38.7434 43.2591 41.315 43.8023 45.2148C43.6446 46.9201 43.9052 48.5477 44.5835 50.0977C40.4972 51.7816 38.6741 54.8414 39.1148 59.2773C38.5939 59.2773 38.0732 59.2773 37.5523 59.2773C37.5523 50.9439 37.5523 42.6107 37.5523 34.2773ZM65.6773 34.2773C75.0523 34.2773 84.4273 34.2773 93.8023 34.2773C93.8023 42.6107 93.8023 50.9439 93.8023 59.2773C92.7607 59.2773 91.7189 59.2773 90.6773 59.2773C91.1899 55.2893 89.6925 52.3596 86.1851 50.4883C86.0224 47.691 85.9247 44.8916 85.8921 42.0898C84.6509 38.391 82.0792 36.8609 78.1773 37.5C75.7358 38.1186 74.206 39.6484 73.5874 42.0898C73.5548 44.8916 73.4571 47.691 73.2944 50.4883C69.787 52.3596 68.2896 55.2893 68.8023 59.2773C67.7607 59.2773 66.7189 59.2773 65.6773 59.2773C65.6773 50.9439 65.6773 42.6107 65.6773 34.2773ZM19.3882 40.7227C21.7136 40.384 23.0155 41.3605 23.2944 43.6523C21.3413 43.6523 19.3882 43.6523 17.4351 43.6523C17.4681 42.2539 18.1192 41.2773 19.3882 40.7227ZM49.0757 40.7227C51.4011 40.384 52.703 41.3605 52.9819 43.6523C51.0288 43.6523 49.0757 43.6523 47.1226 43.6523C47.1556 42.2539 47.8067 41.2773 49.0757 40.7227ZM78.7632 40.7227C81.0886 40.384 82.3905 41.3605 82.6694 43.6523C80.7163 43.6523 78.7632 43.6523 76.8101 43.6523C76.8431 42.2539 77.4942 41.2773 78.7632 40.7227ZM17.4351 46.7773C19.3882 46.7773 21.3413 46.7773 23.2944 46.7773C23.1655 48.599 22.189 49.5756 20.3647 49.707C18.5405 49.5756 17.564 48.599 17.4351 46.7773ZM47.1226 46.7773C49.0757 46.7773 51.0288 46.7773 52.9819 46.7773C52.853 48.599 51.8765 49.5756 50.0523 49.707C48.228 49.5756 47.2515 48.599 47.1226 46.7773ZM76.6148 46.7773C78.6982 46.7773 80.7814 46.7773 82.8648 46.7773C82.8648 47.8189 82.8648 48.8607 82.8648 49.9023C80.7814 49.9023 78.6982 49.9023 76.6148 49.9023C76.6148 48.8607 76.6148 47.8189 76.6148 46.7773ZM11.9663 46.9727C13.7926 46.9463 14.3134 47.7602 13.5288 49.4141C11.8601 50.0629 11.1114 49.5096 11.2827 47.7539C11.4174 47.3926 11.6453 47.132 11.9663 46.9727ZM27.5913 46.9727C29.4175 46.9463 29.9384 47.7602 29.1538 49.4141C27.4851 50.0629 26.7364 49.5096 26.9077 47.7539C27.0425 47.3926 27.2702 47.132 27.5913 46.9727ZM46.9273 53.0273C47.4482 53.0273 47.9689 53.0273 48.4898 53.0273C48.4898 55.1107 48.4898 57.1939 48.4898 59.2773C46.4064 59.2773 44.3232 59.2773 42.2398 59.2773C41.981 55.767 43.5435 53.6836 46.9273 53.0273ZM51.6148 53.0273C55.8466 52.9623 57.9298 55.0455 57.8648 59.2773C55.7814 59.2773 53.6982 59.2773 51.6148 59.2773C51.6148 57.1939 51.6148 55.1107 51.6148 53.0273ZM76.6148 53.0273C77.1357 53.0273 77.6564 53.0273 78.1773 53.0273C78.1773 54.0689 78.1773 55.1107 78.1773 56.1523C79.2189 56.1523 80.2607 56.1523 81.3023 56.1523C81.3023 55.1107 81.3023 54.0689 81.3023 53.0273C85.5341 52.9623 87.6173 55.0455 87.5523 59.2773C82.3439 59.2773 77.1357 59.2773 71.9273 59.2773C71.6685 55.767 73.231 53.6836 76.6148 53.0273ZM16.0679 53.2227C16.4171 53.167 16.7426 53.232 17.0444 53.418C16.5319 54.017 16.1738 54.668 15.9702 55.3711C16.8166 55.957 17.6629 56.543 18.5093 57.1289C19.1278 56.2826 19.7462 55.4361 20.3647 54.5898C20.9833 55.4361 21.6017 56.2826 22.2202 57.1289C23.1587 56.5471 24.0376 55.8959 24.8569 55.1758C24.4663 54.5898 24.0757 54.0039 23.6851 53.418C25.5755 53.3125 26.9101 54.1588 27.689 55.957C28.0212 57.0385 28.1839 58.1453 28.1773 59.2773C22.9689 59.2773 17.7606 59.2773 12.5523 59.2773C12.2779 56.3705 13.4498 54.3523 16.0679 53.2227ZM6.30225 62.4023C35.4688 62.4023 64.6357 62.4023 93.8023 62.4023C93.8347 63.9662 93.8023 65.5287 93.7046 67.0898C93.5165 69.2959 92.3773 70.7607 90.2866 71.4844C76.881 71.7104 63.4696 71.808 50.0523 71.7773C36.6349 71.808 23.2235 71.7104 9.81788 71.4844C7.72731 70.7607 6.58797 69.2959 6.39991 67.0898C6.30231 65.5287 6.26975 63.9662 6.30225 62.4023ZM43.8023 74.9023C47.9689 74.9023 52.1357 74.9023 56.3023 74.9023C56.3023 78.0273 56.3023 81.1523 56.3023 84.2773C52.1357 84.2773 47.9689 84.2773 43.8023 84.2773C43.8023 81.1523 43.8023 78.0273 43.8023 74.9023ZM31.3023 87.4023C43.8024 87.3697 56.3024 87.4023 68.8023 87.5C69.6812 87.5977 70.1694 88.0859 70.2671 88.9648C70.3648 90.526 70.3972 92.0885 70.3648 93.6523C56.8232 93.6523 43.2814 93.6523 29.7398 93.6523C29.7073 92.0885 29.7398 90.526 29.8374 88.9648C29.9702 88.0838 30.4585 87.5631 31.3023 87.4023Z" fill="#23252F"/>
<path fill-rule="evenodd" clip-rule="evenodd" d="M78.1772 65.5273C79.2188 65.5273 80.2606 65.5273 81.3022 65.5273C81.3022 66.5689 81.3022 67.6107 81.3022 68.6523C80.2606 68.6523 79.2188 68.6523 78.1772 68.6523C78.1772 67.6107 78.1772 66.5689 78.1772 65.5273Z" fill="#23252F"/>
<path fill-rule="evenodd" clip-rule="evenodd" d="M84.4272 65.5273C85.4688 65.5273 86.5106 65.5273 87.5522 65.5273C87.5522 66.5689 87.5522 67.6107 87.5522 68.6523C86.5106 68.6523 85.4688 68.6523 84.4272 68.6523C84.4272 67.6107 84.4272 66.5689 84.4272 65.5273Z" fill="#23252F"/>
</svg>
