<svg width="101" height="100" viewBox="0 0 101 100" fill="none" xmlns="http://www.w3.org/2000/svg">
<g clip-path="url(#clip0_72_106)">
<path opacity="0.966" fill-rule="evenodd" clip-rule="evenodd" d="M27.7865 7.91016C33.4279 8.24035 37.9525 10.6492 41.3607 15.1367C45.8113 21.043 46.9181 27.5533 44.681 34.668C43.6519 38.0623 41.9917 41.0896 39.7005 43.75C40.3929 45.8781 41.2066 47.9289 42.1419 49.9023C39.8327 47.8533 37.131 46.6814 34.0365 46.3867C34.0677 46.0549 34.0353 45.7293 33.9388 45.4102C33.4238 45.749 32.8704 46.0094 32.2786 46.1914C32.2632 50.3438 30.2451 52.0039 26.224 51.1719C24.3271 50.0807 23.4808 48.4205 23.6849 46.1914C23.1199 45.9492 22.5663 45.6887 22.0247 45.4102C21.9283 45.7293 21.8958 46.0549 21.9271 46.3867C18.751 46.7389 15.9841 47.9758 13.6263 50.0977C14.6048 48.1111 15.4186 46.0277 16.0677 43.8477C15.1266 42.3578 14.1826 40.8604 13.2357 39.3555C11.1269 35.0109 10.4759 30.4535 11.2826 25.6836C11.897 22.0146 13.1991 18.6292 15.1888 15.5273C16.4834 13.6904 18.2086 13.0394 20.3646 13.5742C20.7079 13.4516 21.0009 13.2563 21.2435 12.9883C21.1581 11.7601 21.5812 10.751 22.513 9.96094C24.116 8.83219 25.8738 8.14859 27.7865 7.91016ZM21.7318 20.6055C22.5808 21.423 23.3294 22.3346 23.9779 23.3398C25.2431 24.6398 26.773 25.4537 28.5677 25.7812C33.3744 24.865 37.248 26.3299 40.1888 30.1758C40.0179 34.5859 38.4228 38.3945 35.4036 41.6016C30.1826 45.9943 25.1044 45.8314 20.1693 41.1133C17.7341 38.5281 16.3344 35.4682 15.9701 31.9336C16.3451 31.3791 16.6706 30.7932 16.9466 30.1758C17.6386 27.9934 18.4198 25.8449 19.2904 23.7305C19.9644 22.5768 20.7783 21.535 21.7318 20.6055Z" fill="#7A8EE0"/>
<path opacity="0.963" fill-rule="evenodd" clip-rule="evenodd" d="M100.052 11.0351C100.052 20.8657 100.052 30.6966 100.052 40.5272C99.7573 40.7882 99.4317 41.0161 99.0757 41.2108C85.6642 41.2759 72.2528 41.3411 58.8413 41.4061C54.1632 46.8894 49.5083 52.3907 44.8765 57.9101C44.9688 61.4749 45.0013 65.0556 44.9741 68.6522C58.0601 68.6522 71.146 68.6522 84.2319 68.6522C84.2319 60.1235 84.2319 51.595 84.2319 43.0663C85.9247 43.0663 87.6173 43.0663 89.3101 43.0663C89.3427 52.7019 89.3101 62.3374 89.2124 71.9726C88.9683 72.4942 88.6103 72.9173 88.1382 73.2421C59.4356 73.5663 30.7247 73.6315 2.00537 73.4374C1.11568 73.3524 0.464643 72.9292 0.0522461 72.1679C0.0522461 53.6782 0.0522461 35.1888 0.0522461 16.6991C0.405574 16.1836 0.861305 15.7605 1.41943 15.4296C5.32568 15.2994 9.23193 15.2994 13.1382 15.4296C12.2009 16.9134 11.4197 18.4759 10.7944 20.1171C8.90754 20.2147 7.01951 20.2472 5.13037 20.2147C5.13037 36.3606 5.13037 52.5063 5.13037 68.6522C7.0835 68.6522 9.03662 68.6522 10.9897 68.6522C10.9897 65.3319 10.9897 62.0116 10.9897 58.6913C12.8281 59.0069 14.651 59.3976 16.4585 59.8632C16.6199 60.6364 16.7176 61.4177 16.7515 62.2069C16.8423 62.4864 17.0051 62.7142 17.2397 62.8905C24.8569 62.9556 32.4741 63.0208 40.0913 63.0858C42.146 64.113 42.6343 65.6431 41.5562 67.6757C41.2181 68.0892 40.7948 68.3821 40.2866 68.5546C41.1981 68.6849 42.1095 68.6849 43.021 68.5546C44.5868 65.7991 44.0661 63.488 41.4585 61.621C42.4312 60.4204 43.4401 59.2485 44.4858 58.1054C44.4552 57.3597 44.2599 56.6435 43.8999 55.9569C42.5001 57.6171 41.1005 59.2772 39.7007 60.9374C32.6698 61.0351 25.6386 61.0677 18.6069 61.0351C18.6392 60.3159 18.6067 59.5999 18.5093 58.8866C18.4492 58.7288 18.3515 58.5985 18.2163 58.496C16.0346 57.8513 13.821 57.3304 11.5757 56.9335C13.1683 51.8657 16.6188 48.936 21.9272 48.1444C23.0646 52.13 25.6688 53.7901 29.7397 53.1249C32.1007 52.2829 33.5329 50.6227 34.0366 48.1444C38.5532 48.7905 41.8409 51.1343 43.8999 55.1757C44.0302 55.436 44.1603 55.436 44.2905 55.1757C48.0624 50.5897 51.871 46.0325 55.7163 41.5038C54.9288 41.3622 54.1476 41.1995 53.3726 41.0155C53.138 40.8392 52.9751 40.6114 52.8843 40.3319C52.754 30.6313 52.754 20.931 52.8843 11.2304C52.9751 10.9509 53.138 10.723 53.3726 10.5468C68.6562 10.2224 83.9556 10.1573 99.271 10.3515C99.6323 10.4862 99.8929 10.714 100.052 11.0351ZM75.0522 13.9647C81.9536 13.9322 88.8546 13.9647 95.7554 14.0624C96.5366 14.5832 96.5366 15.1041 95.7554 15.6249C88.8544 15.7551 81.9532 15.7551 75.0522 15.6249C74.2915 15.0737 74.2915 14.5203 75.0522 13.9647ZM57.6694 14.9413C61.3804 14.9413 65.0913 14.9413 68.8022 14.9413C68.8022 18.6522 68.8022 22.3632 68.8022 26.0741C65.0913 26.0741 61.3804 26.0741 57.6694 26.0741C57.6694 22.3632 57.6694 18.6522 57.6694 14.9413ZM74.8569 19.6288C81.8233 19.5962 88.7896 19.6288 95.7554 19.7265C96.5366 20.2474 96.5366 20.7681 95.7554 21.289C88.8544 21.4192 81.9532 21.4192 75.0522 21.289C74.3399 20.812 74.2747 20.2585 74.8569 19.6288ZM21.7319 20.6054C20.7784 21.5349 19.9646 22.5767 19.2905 23.7304C18.42 25.8448 17.6387 27.9933 16.9468 30.1757C16.6708 30.7931 16.3453 31.379 15.9702 31.9335C16.3345 35.4681 17.7342 38.528 20.1694 41.1132C25.1046 45.8313 30.1827 45.9942 35.4038 41.6015C38.423 38.3944 40.0181 34.5858 40.189 30.1757C37.2481 26.3298 33.3745 24.8649 28.5679 25.7811C26.7731 25.4536 25.2433 24.6397 23.978 23.3397C23.3296 22.3345 22.581 21.4229 21.7319 20.6054ZM75.2476 25.0976C82.0187 25.0649 88.7896 25.0976 95.5601 25.1952C96.1224 25.5206 96.2851 26.0089 96.0483 26.6601C95.9019 26.7823 95.739 26.88 95.5601 26.953C88.7892 27.0833 82.0185 27.0833 75.2476 26.953C74.2218 26.3358 74.2218 25.7175 75.2476 25.0976ZM75.0522 30.7616C81.8886 30.729 88.7245 30.7616 95.5601 30.8593C96.5282 31.4903 96.4632 32.0763 95.3647 32.6171C88.7241 32.7474 82.0835 32.7474 75.4429 32.6171C74.3569 32.1925 74.2267 31.5739 75.0522 30.7616ZM64.3101 31.5429C65.9228 31.5784 66.2157 32.2296 65.189 33.496C63.0731 36.0024 60.9571 38.5091 58.8413 41.0155C58.0601 41.1458 57.2788 41.1458 56.4976 41.0155C59.1431 37.8827 61.7474 34.7251 64.3101 31.5429ZM75.0522 36.4257C81.9536 36.3931 88.8546 36.4257 95.7554 36.5233C96.5366 37.0442 96.5366 37.5649 95.7554 38.0858C88.8544 38.2161 81.9532 38.2161 75.0522 38.0858C74.2915 37.5347 74.2915 36.9813 75.0522 36.4257Z" fill="#23252F"/>
<path opacity="0.917" fill-rule="evenodd" clip-rule="evenodd" d="M43.8022 15.332C46.211 15.332 48.62 15.332 51.0288 15.332C51.0288 16.9596 51.0288 18.5872 51.0288 20.2148C49.4013 20.2148 47.7735 20.2148 46.146 20.2148C45.5192 18.506 44.738 16.8783 43.8022 15.332Z" fill="#23252F"/>
<path opacity="0.956" fill-rule="evenodd" clip-rule="evenodd" d="M40.4819 75.293C43.2813 75.293 46.0809 75.293 48.8803 75.293C48.8477 78.6791 48.8803 82.0645 48.978 85.4492C49.0756 85.5469 49.1733 85.6445 49.2709 85.7422C52.3959 85.8072 55.5209 85.8725 58.6459 85.9375C59.7663 86.2113 60.5149 86.8949 60.892 87.9883C60.9897 89.2887 61.0221 90.5908 60.9897 91.8945C50.1172 91.8945 39.245 91.8945 28.3725 91.8945C28.3401 90.5258 28.3725 89.1586 28.4702 87.793C28.8622 86.7504 29.611 86.132 30.7163 85.9375C33.7762 85.8725 36.836 85.8072 39.8959 85.7422C40.0538 85.682 40.184 85.5844 40.2866 85.4492C40.4791 82.073 40.5442 78.6877 40.4819 75.293Z" fill="#23252F"/>
</g>
<defs>
<clipPath id="clip0_72_106">
<rect width="100" height="100" fill="white" transform="translate(0.149902)"/>
</clipPath>
</defs>
</svg>
