<svg width="100" height="100" viewBox="0 0 100 100" fill="none" xmlns="http://www.w3.org/2000/svg">
<g clip-path="url(#clip0_196_87)">
<path d="M76.7578 3.71094V7.03125H60.8398H44.9219V8.59375V10.1562H62.5H80.0586L80.1172 8.76953L80.1758 7.38281L84.4727 11.1328C86.8359 13.2031 88.7891 14.9609 88.8281 15.0195C88.8477 15.0781 86.8945 17.1094 84.4727 19.5312L80.0781 23.9258V21.8164V19.7266H68.8477H57.6172V21.2891V22.8516H67.1875H76.7578V27.1484C76.7578 29.5117 76.8164 31.4453 76.9141 31.4453C76.9922 31.4453 80.7813 27.7148 85.332 23.1641L93.6133 14.8828L92.8516 14.1992C89.3555 11.0742 77.0313 0.390625 76.9141 0.390625C76.8359 0.390625 76.7578 1.875 76.7578 3.71094Z" fill="#23252F"/>
<path d="M14.9805 13.5547C14.1016 13.8672 13.5352 14.3359 13.1641 15.0781C12.7539 15.8789 12.793 20.332 13.2031 21.2305C13.5938 22.0312 14.7266 22.8516 15.4688 22.8516H16.0156V24.5117V26.1719H9.92188C4.19922 26.1719 3.75 26.2109 2.92969 26.582C1.85547 27.0703 1.07422 27.793 0.527344 28.8086L0.0976562 29.5898V46.9727V64.3555L0.527344 65.1367C1.01562 66.0547 1.77734 66.7969 2.73438 67.3047C3.33984 67.6367 3.98438 67.6758 8.76953 67.7344L14.1016 67.793L12.8516 69.1016C9.10156 73.0078 6.81641 77.5 5.95703 82.5977C5.80078 83.5156 5.48828 87.1289 5.27344 90.625C5.05859 94.1211 4.84375 97.6172 4.76562 98.3789L4.64844 99.8047H28.7891C42.4023 99.8047 52.9297 99.7266 52.9297 99.6289C52.9297 99.5312 52.7148 95.957 52.4414 91.6797C51.8164 81.9336 51.4844 80.0977 49.5898 75.9961C48.5547 73.7695 46.875 71.3281 45.0586 69.4141L43.5352 67.793L48.8672 67.7344C53.8867 67.6758 54.2383 67.6562 54.9805 67.2461C55.9961 66.6992 56.7188 65.918 57.207 64.8438C57.5977 63.9844 57.6172 63.6523 57.6172 46.9727C57.6172 30.293 57.5977 29.9609 57.207 29.1016C56.6797 27.9297 55.957 27.1875 54.7852 26.6406C53.8281 26.1914 53.7109 26.1719 47.6953 26.1719H41.582L41.6406 24.5703L41.6992 22.9688L42.3633 22.832C43.1836 22.6562 43.9453 22.1094 44.375 21.3477C44.8047 20.6445 45.0195 18.4375 44.8438 16.7383C44.668 15.1562 44.1602 14.3164 42.9688 13.7109L42.1094 13.2812H28.9062C18.3008 13.3008 15.5859 13.3594 14.9805 13.5547ZM41.6016 18.1641V19.7266H28.8086H16.0156V18.1641V16.6016H28.8086H41.6016V18.1641ZM38.4375 24.5508L38.4961 26.1719H28.8086H19.1406V24.6484C19.1406 23.8086 19.1992 23.0469 19.2773 22.9883C19.3359 22.9102 23.6719 22.8711 28.8867 22.8906L38.3789 22.9492L38.4375 24.5508ZM53.418 29.5703C53.9258 29.7852 54.1211 30.0195 54.2969 30.6055C54.4531 31.1328 54.4922 36.0547 54.4531 47.5L54.3945 63.6523L53.9453 64.1016L53.4961 64.5508L29.3359 64.6094C12.0703 64.6484 4.96094 64.6094 4.43359 64.4531C3.00781 64.043 3.04688 64.8633 3.22266 46.6016C3.28125 37.6953 3.39844 30.293 3.45703 30.1367C3.76953 29.3164 3.63281 29.3164 28.7695 29.2969C49.082 29.2969 52.8516 29.3359 53.418 29.5703ZM23.5742 69.043C22.4023 69.7461 21.3867 70.3125 21.2891 70.3125C21.0352 70.3125 19.3359 68.0469 19.4727 67.8906C19.5508 67.832 20.957 67.7734 22.6367 67.7734H25.6836L23.5742 69.043ZM38.1445 67.8906C38.2812 68.0469 36.582 70.3125 36.3281 70.3125C36.2305 70.3125 35.2148 69.7461 34.043 69.043L31.9336 67.7734H34.9805C36.6602 67.7734 38.0664 67.832 38.1445 67.8906ZM29.8047 70.2344C30.2734 70.5078 30.6641 70.7812 30.6641 70.8398C30.6641 70.8789 30.3906 71.3086 30.0781 71.7969C29.5703 72.5195 29.375 72.6562 28.8086 72.6562C28.2422 72.6562 28.0469 72.5195 27.5391 71.7578C26.8555 70.7812 26.8359 70.8203 27.8711 70.1953C28.7891 69.6289 28.7695 69.6289 29.8047 70.2344ZM18.5547 72.2656C19.5312 73.5547 20.3711 74.6094 20.4297 74.6094C20.5078 74.6094 21.3086 74.1602 22.2461 73.5938C23.1641 73.0469 23.9844 72.5586 24.043 72.5391C24.1211 72.5 24.4727 72.9297 24.8438 73.4961L25.5273 74.5312L23.9062 83.3984L22.2852 92.2852L24.3359 94.3359C25.4492 95.4688 26.3672 96.4648 26.3672 96.543C26.3672 96.6211 24.4141 96.6602 22.0312 96.6406L17.6758 96.582L17.5781 88.7695C17.4805 81.3477 17.4609 80.918 17.0703 80.0781C16.8359 79.5898 16.4062 78.9062 16.1133 78.5547L15.5664 77.9102L14.4531 79.0039L13.3203 80.1172L13.7891 80.8008C14.0234 81.1719 14.2969 81.8359 14.3555 82.2852C14.4141 82.7344 14.4531 86.1328 14.4141 89.8438L14.3555 96.582L11.2891 96.6406L8.20312 96.6992V95.8008C8.20312 94.1797 8.78906 85.4883 9.00391 83.9062C9.62891 79.2383 11.8164 74.7852 15.1172 71.4258C15.9375 70.6055 16.6406 69.9219 16.6992 69.9219C16.7383 69.9219 17.5781 70.9766 18.5547 72.2656ZM43.125 72.0312C46.1133 75.4688 47.8906 79.2188 48.5547 83.3984C48.9844 86.1133 49.5703 96.5039 49.3164 96.6016C49.1992 96.6602 47.793 96.6602 46.1914 96.6406L43.2617 96.582L43.2031 90.0391C43.1445 82.6367 43.2031 81.7383 43.8477 80.8008L44.2969 80.1172L43.1836 79.0234L42.0703 77.9297L41.6602 78.3594C41.4258 78.6133 40.9961 79.3359 40.6836 79.9805L40.1367 81.1523L40.0391 88.8672L39.9414 96.582L35.6055 96.6406C33.2031 96.6602 31.25 96.6211 31.25 96.543C31.25 96.4648 32.168 95.4688 33.3008 94.3359L35.332 92.2852L33.7891 83.7891C32.9297 79.1211 32.2266 75.0781 32.2266 74.8242C32.2266 74.3359 33.3398 72.4219 33.5742 72.5195C33.6328 72.5586 34.4531 73.0469 35.3711 73.5938C36.3086 74.1602 37.1094 74.6094 37.1875 74.6094C37.2461 74.6094 38.0859 73.5547 39.0625 72.2656L40.8398 69.9219L41.4844 70.4102C41.8359 70.6836 42.5781 71.4062 43.125 72.0312ZM29.1602 76.2109C29.2188 76.4648 29.8438 79.9414 30.5859 83.9453L31.8945 91.25L30.3516 92.793L28.8086 94.3359L27.2656 92.793L25.7422 91.25L27.0508 84.0625C27.7734 80.0977 28.3984 76.6211 28.457 76.3086C28.5938 75.6641 29.0234 75.6055 29.1602 76.2109Z" fill="#23252F"/>
<path d="M26.3477 39.043C25.4883 39.3164 24.9023 39.8047 24.4531 40.6055C24.043 41.3086 24.0234 41.6016 24.0234 45.3125C24.0234 49.7461 24.1211 50.1953 25.3516 51.1328C26.0352 51.6406 26.1133 51.6602 28.8086 51.6602C31.5039 51.6602 31.582 51.6406 32.2656 51.1328C33.4961 50.1953 33.5938 49.7461 33.5938 45.3125C33.5938 40.8008 33.4766 40.3516 32.168 39.4922C31.4453 39.0039 31.1914 38.9648 29.1211 38.9258C27.8711 38.9062 26.6211 38.9453 26.3477 39.043ZM30.4297 45.3516L30.3711 48.5352H28.8086H27.2461L27.1875 45.3516L27.1484 42.1875H28.8086H30.4688L30.4297 45.3516Z" fill="#23252F"/>
<path d="M83.2031 35.5078V38.8672L72.0312 38.9062L60.8398 38.9648V40.5273V42.0898L73.6719 42.1484L86.5039 42.1875L86.5625 40.8203L86.6211 39.4336L90.957 43.2227L95.2734 47.0117L90.8984 51.3867L86.5234 55.7617V53.75V51.7578H73.6328H60.7422V53.3203V54.8828H71.9727H83.2031V59.1797C83.2031 61.543 83.2617 63.4766 83.3594 63.4766C83.4375 63.4766 87.2266 59.7461 91.7773 55.1953L100.039 46.9336L92.168 40.0391C87.832 36.25 84.043 32.9297 83.75 32.6562L83.2031 32.1484V35.5078Z" fill="#23252F"/>
<path d="M76.7578 67.6758V70.8984L64.8047 70.9375L52.832 70.9961V72.5586V74.1211L66.4453 74.1797L80.0586 74.2188L80.1172 72.8125L80.1758 71.4258L84.4727 75.1758C86.8359 77.2461 88.7891 79.0039 88.8281 79.0625C88.8477 79.1406 86.8945 81.1719 84.4727 83.5938L80.0781 87.9883V85.8789V83.7891H67.2852H54.4922V85.3516V86.9141H65.625H76.7578V91.2109C76.7578 93.5742 76.8164 95.5078 76.9141 95.5078C77.1094 95.5078 93.6523 78.9453 93.5547 78.8477C91.3086 76.7969 77.0508 64.4531 76.9336 64.4531C76.8359 64.4531 76.7578 65.8984 76.7578 67.6758Z" fill="#23252F"/>
</g>
<defs>
<clipPath id="clip0_196_87">
<rect width="100" height="100" fill="white"/>
</clipPath>
</defs>
</svg>
